<svg width="304" height="507" viewBox="0 0 304 507" fill="none" xmlns="http://www.w3.org/2000/svg">
<g clip-path="url(#clip0_1363_1654)">
<path d="M419.132 351.796C419.901 350.452 420.833 348.701 421.603 347.358C385.828 263.611 341.88 162.475 297.819 65.7718C295.907 65.2473 293.709 64.8454 291.919 64.6054C358.542 211.285 395.622 296.493 419.132 351.796Z" fill="#FFCC01"/>
<path d="M413.786 360.512L283.134 62.9978C281.344 62.7578 279.147 62.3559 277.072 62.2385C332.873 189.298 377.385 287.83 411.192 364.666C411.839 363.038 412.731 361.979 413.786 360.512Z" fill="#FFCC01"/>
<path d="M402.389 375.545C403.281 374.485 403.889 373.548 404.904 372.773C355.57 263.84 313.339 166.686 271.293 61.3558C270.194 61.1549 269.218 61.2384 268.12 61.0374C310.695 166.814 338.626 234.715 402.389 375.545Z" fill="#FFCC01"/>
<path d="M398.652 380.19C399.828 379.008 400.598 377.664 401.775 376.482C372.707 309.071 341.4 259.154 254.814 60.7018C253.146 60.7461 251.763 60.6679 250.096 60.7122C285.33 139.295 322.522 220.069 329.592 234.899C352.517 283.37 377.433 330.983 398.652 380.19Z" fill="#FFCC01"/>
<path d="M385.829 393.478C387.574 392.051 388.913 390.461 390.252 388.872C346.985 283.057 294.378 165.752 244.279 60.5216C242.896 60.4434 241.636 60.6495 240.375 60.8557C305.51 197.045 348.282 299.364 385.829 393.478Z" fill="#FFCC01"/>
<path d="M372.844 404.814C373.859 404.039 374.874 403.264 375.889 402.489C344.47 320.238 292.16 190.324 231.435 62.0149C230.175 62.2211 228.63 62.5499 227.247 62.4716C274.569 162.828 319.248 263.312 372.844 404.814Z" fill="#FFCC01"/>
<path d="M345.368 358.305C352.442 375.493 358.948 392.928 365.615 409.955C367.199 408.934 368.661 407.629 370.245 406.609C323.817 287.989 277.001 195.848 213.382 64.7388C212.122 64.9449 210.984 65.4355 209.724 65.6417C250.379 148.971 300.79 248.669 345.368 358.305Z" fill="#FFCC01"/>
<path d="M359.968 414.076C333.073 354.835 286.275 252.566 202.403 67.448C201.143 67.6542 200.005 68.1448 198.46 68.4736C282.622 255.828 328.444 358.18 354.931 417.259C356.8 416.116 358.384 415.096 359.968 414.076Z" fill="#FFCC01"/>
<path d="M347.175 421.954C348.759 420.934 350.627 419.791 352.334 419.055C307.042 317.149 244.143 180.669 192.935 70.5198C191.797 71.0104 190.821 71.094 189.684 71.5846C281.39 267.829 281.523 272.832 347.175 421.954Z" fill="#FFCC01"/>
<path d="M345.465 422.691C297.971 318.024 233.605 180.49 182.893 73.8373C181.471 74.4506 180.049 75.0638 178.627 75.6771C227.337 178.47 286.055 300.561 341.606 424.692C343.028 424.079 344.45 423.466 345.465 422.691Z" fill="#FFCC01"/>
<path d="M332.187 429.429C304.98 375.721 238.216 238.884 165.388 81.7243C164.25 82.2149 163.519 82.8673 162.381 83.3579C218.824 206.43 281.139 336.077 327.92 431.269C328.489 431.024 331.334 429.797 332.187 429.429Z" fill="#FFCC01"/>
<path d="M318.696 434.91C320.119 434.297 321.256 433.807 322.801 433.478C250.129 273.552 197.778 161.534 161.082 84.2565C159.498 85.2768 157.507 86.1354 155.923 87.1557C203.324 186.129 215.25 208.309 318.696 434.91Z" fill="#FFCC01"/>
<path d="M335.474 427.674C336.611 427.184 337.749 426.693 339.171 426.08C292.663 326.047 226.787 185.792 175.216 77.1482C174.079 77.6388 173.225 78.0068 172.088 78.4974C214.258 166.907 287.042 322.399 335.474 427.674Z" fill="#FFCC01"/>
<path d="M308.941 438.104C310.771 437.652 312.477 436.916 314.306 436.465C263.033 315.212 203 186.942 154.623 88.0525C153.485 88.5431 152.47 89.3182 151.617 89.6861C209.427 205.759 260.974 322.171 308.941 438.104Z" fill="#FFCC01"/>
<path d="M303.449 439.46C186.672 181.164 180.161 161.371 147.591 92.0964C145.723 93.2394 144.261 94.5442 142.393 95.6871C196.863 209.49 253.321 339.639 298.084 441.099C299.79 440.363 301.62 439.911 303.449 439.46Z" fill="#FFCC01"/>
<path d="M287.84 443.155C289.669 442.704 291.621 442.537 293.45 442.085C253.712 349.928 195.546 220.515 137.603 99.4397C136.304 100.337 135.004 101.235 133.827 102.417C222.295 287.24 261.587 379.927 287.84 443.155Z" fill="#FFCC01"/>
<path d="M280.28 444.391C230.45 331.961 178.345 220.512 125.101 109.554C123.64 110.859 122.179 112.163 120.717 113.468C172.332 223.779 224.354 334.252 274.832 445.054C276.784 444.887 278.328 444.558 280.28 444.391Z" fill="#FFCC01"/>
<path d="M268.281 445.516C216.823 332.439 160.469 212.702 115.276 118.849C114.384 119.908 113.207 121.091 112.314 122.15C154.318 208.608 207.684 319.851 264.377 445.85C265.76 445.929 267.021 445.723 268.281 445.516Z" fill="#FFCC01"/>
<path d="M248.962 446.087C227.43 402.412 214.468 371.571 103.712 131.93C103.104 132.867 102.374 133.519 101.766 134.456C149.422 238.716 210.202 373.41 244.935 446.137C246.196 445.931 247.579 446.009 248.962 446.087Z" fill="#FFCC01"/>
<path d="M224.108 443.987C226.183 444.105 228.095 444.629 230.17 444.747C172.712 322.45 134.346 225.653 98.3203 138.979C97.1434 140.161 96.0892 141.627 95.3194 142.971C134.839 246.354 176.825 342.94 224.108 443.987Z" fill="#FFCC01"/>
<path d="M223.416 443.949C188.315 370.369 165.919 322.344 87.4151 155.151C86.6453 156.495 85.8756 157.838 85.1058 159.182C136.966 270.062 182.777 367.697 217.923 442.944C219.713 443.184 221.626 443.709 223.416 443.949Z" fill="#FFCC01"/>
<path d="M202.178 439.278C204.091 439.803 206.004 440.327 207.917 440.852C167.64 363.094 119.856 256.19 80.4123 168.629C79.9269 169.85 79.1571 171.194 78.6718 172.415C110.261 239.414 193.191 421.565 202.178 439.278Z" fill="#FFCC01"/>
<path d="M201.771 439.117C165.192 359.764 115.044 250.507 78.5486 172.131C77.7788 173.475 77.4161 174.981 76.6463 176.325C111.346 252.102 159.9 357.661 197.008 437.46C198.637 438.107 200.265 438.754 201.771 439.117Z" fill="#FFCC01"/>
<path d="M188.544 435.036C190.172 435.684 191.678 436.046 193.306 436.693C157.998 361.853 110.802 281.345 71.9944 187.437C71.3473 189.065 70.9846 190.571 70.3374 192.199C116.577 299.431 150.243 349.343 188.544 435.036Z" fill="#FFCC01"/>
<path d="M171.195 427.674C173.638 428.645 175.919 430.023 178.361 430.993C118.772 319.398 101.439 279.984 67.146 204.369C66.7833 205.875 66.2588 207.787 65.8961 209.293C103.266 296.737 135.379 361.823 171.195 427.674Z" fill="#FFCC01"/>
<path d="M142.443 411.062C144.316 412.278 146.313 413.778 148.186 414.994C90.003 295.709 107.057 337.604 62.4351 226.301C61.9942 229.19 61.5532 232.079 61.5193 235.129C73.7949 268.291 80.0501 282.797 142.443 411.062Z" fill="#FFCC01"/>
<path d="M120.686 393.459C123.458 395.974 126.352 398.774 129.407 401.167C103.8 353.515 82.3462 308.457 60.6423 260.471C60.6084 263.521 60.9816 266.734 61.2322 269.662C78.1136 307.246 100.799 357.508 120.686 393.459Z" fill="#FFCC01"/>
<path d="M101.235 371.823C88.6414 341.835 76.7782 311.194 62.7621 281.819C63.5032 285.885 64.2444 289.95 64.9855 294.016C89.059 346.715 83.6547 349.045 101.235 371.823Z" fill="#FFCC01"/>
</g>
<defs>
<clipPath id="clip0_1363_1654">
<rect width="385.642" height="385.642" fill="white" transform="translate(354.125) rotate(66.6739)"/>
</clipPath>
</defs>
</svg>
