<svg width="101" height="97" viewBox="0 0 101 97" fill="none" xmlns="http://www.w3.org/2000/svg">
<g clip-path="url(#clip0_1363_1780)">
<path d="M100.269 83.9623C91.7702 91.5878 78.5323 94.4576 67.5825 96.0155C56.5509 97.5734 41.3519 98.3934 32.5266 89.9479C25.9894 83.6343 26.2346 72.7289 30.8923 65.3494C36.449 56.7399 49.1965 58.2158 57.4498 61.4956C57.1229 62.2336 56.7143 62.9716 56.3875 63.7095C51.8931 61.5776 47.7257 59.1998 45.5194 54.5261C43.8033 50.8363 43.7216 46.2446 44.2936 42.3088C44.8656 38.4551 46.0097 34.4373 49.7686 32.7154C54.0177 30.6656 58.5938 31.4035 62.843 32.9614C72.4037 36.5692 79.758 45.0967 85.233 53.4601C88.4199 58.2978 89.237 63.8735 91.6067 69.0392C93.6496 73.5489 96.6731 79.1246 100.35 82.4044C101.494 83.4703 99.9417 85.3562 98.716 84.2902C94.2216 80.1905 90.381 73.2209 88.4198 67.4813C86.7855 62.8076 85.6415 58.2978 82.7815 54.1981C80.2483 50.4263 77.2249 46.5726 74.038 43.3748C68.7265 38.1271 55.4886 28.6157 48.8697 36.5692C46.0914 39.931 45.9279 46.2446 46.7451 50.3443C47.8891 56.248 52.3017 59.1178 57.3681 61.4137C58.8389 62.0696 57.7766 64.2015 56.3058 63.6275C48.0525 60.3477 36.0404 59.3638 31.7095 68.7932C27.3786 78.3046 30.8106 88.308 40.6982 92.0798C50.0137 95.6875 61.127 94.5396 70.7694 92.8997C79.8398 91.4238 91.3616 88.554 98.3074 82.2404C99.6148 81.3384 101.413 82.9783 100.269 83.9623Z" fill="#512A00"/>
<path d="M100.187 84.208C97.4088 85.2739 92.5876 82.4861 90.1361 81.5841C84.6612 79.5342 79.4315 77.4024 74.2017 74.7785C63.497 69.4489 53.6095 62.5613 44.0488 55.5097C34.4881 48.3762 26.0714 40.2587 18.7988 30.8293C15.285 26.2375 11.7713 21.5638 8.58437 16.7261C5.47919 11.9704 3.43631 6.47677 0.249415 1.96705C-0.649453 0.655133 1.39343 -0.656786 2.29229 0.573138C5.15233 4.50889 6.86835 9.3466 9.48324 13.5283C12.2616 18.0381 15.4484 22.2198 18.6353 26.4835C25.5811 35.831 33.3441 44.0304 42.5779 51.246C51.5666 58.2976 61.3724 65.3491 71.5051 70.6788C75.9177 72.9747 80.412 75.2705 84.9881 77.0744C87.5213 78.0583 90.1361 78.9603 92.6693 79.9442C94.2219 80.5182 97.7357 82.5681 99.37 81.9121C100.923 81.3381 101.658 83.634 100.187 84.208Z" fill="#512A00"/>
<path d="M52.5518 59.6917C56.0655 64.9394 58.3536 70.761 61.2136 76.3367C62.6845 79.2885 64.5639 81.9943 66.1165 84.8642C67.5874 87.57 69.2217 90.6858 71.2646 92.9817C72.3269 94.1296 70.6926 96.0155 69.6303 94.8675C65.7079 90.4398 62.7662 84.4542 59.9061 79.2885C56.5558 73.3029 54.2678 66.9073 50.5089 61.1676C49.61 59.6917 51.6529 58.3798 52.5518 59.6917Z" fill="#512A00"/>
<path d="M61.2088 66.8252C61.127 66.8252 61.0453 66.8252 60.9636 66.8252C61.3722 66.1693 61.7808 65.5953 62.1893 64.9393C64.8859 69.941 68.8083 74.6967 72.4855 78.8785C75.8358 82.6503 78.8592 87.078 83.0267 90.0298C84.1707 90.8498 82.8633 92.7356 81.7193 92.0797C81.6376 92.0797 81.5558 91.9977 81.4741 91.9977C80.085 91.2597 81.1473 89.0459 82.5364 89.7838C82.6181 89.7838 82.6999 89.8658 82.7816 89.8658C82.373 90.5218 81.8827 91.2597 81.4741 91.9157C77.0615 88.7179 73.5477 83.7982 70.034 79.6984C66.5202 75.6807 62.8431 71.007 60.3099 66.2513C59.8196 65.3493 60.4733 64.2014 61.5356 64.3654C61.6173 64.3654 61.699 64.3654 61.7808 64.3654C63.2516 64.6114 62.7613 66.9892 61.2088 66.8252Z" fill="#512A00"/>
<path d="M89.643 89.6202C87.0281 88.1443 84.8218 85.0285 82.8606 82.7326C81.7166 81.3387 80.4909 80.0268 79.1834 78.7969C78.448 78.1409 78.0394 77.7309 77.9577 76.665C77.7943 75.1071 80.2457 74.8611 80.4091 76.501C80.4091 76.911 82.0434 78.0589 82.3703 78.3869C83.1875 79.2068 83.9229 80.1088 84.6583 81.0927C85.6389 82.2406 86.6195 83.3066 87.6818 84.3725C88.5807 85.2745 89.643 86.8324 90.787 87.4883C92.0127 88.2263 90.9504 90.4401 89.643 89.6202Z" fill="#512A00"/>
<path d="M81.3148 76.4187C81.3148 76.5007 81.3148 76.5827 81.2331 76.6647C80.8245 76.1728 80.3342 75.6808 79.9256 75.1888C81.1514 75.0248 82.2954 74.5329 83.4394 74.2869C84.6651 74.0409 85.8908 73.8769 87.1166 73.4669C87.9337 73.2209 88.7509 72.893 89.568 72.565C90.0583 72.401 90.9572 72.319 91.3658 71.991C92.5915 71.0071 93.8989 73.057 92.7549 74.0409C92.2646 74.4509 91.4475 74.6149 90.8755 74.7788C89.8949 75.1068 88.9143 75.5168 87.852 75.8448C86.708 76.1728 85.564 76.3367 84.42 76.5827C82.9491 76.9107 81.5599 77.4027 80.0891 77.6487C79.2719 77.7307 78.6182 76.9107 78.7816 76.1728C78.7816 76.0908 78.7816 76.0088 78.8633 75.9268C79.1902 74.4509 81.6417 74.8608 81.3148 76.4187Z" fill="#512A00"/>
<path d="M62.597 64.2019C67.8267 63.6279 72.9748 63.1359 78.2046 62.398C81.6366 61.906 85.1504 61.66 88.5824 61.824C90.135 61.906 89.7264 64.3659 88.1738 64.2839C84.5784 64.1199 80.7378 64.6119 77.1423 65.0218C72.3211 65.5958 67.5816 66.0878 62.7604 66.6617C61.2078 66.8257 61.0444 64.3659 62.597 64.2019Z" fill="#512A00"/>
<path d="M52.6299 59.1987C62.354 55.9189 72.8953 52.967 83.028 51.4911C82.7828 52.2291 82.5377 52.885 82.2925 53.623C82.2108 53.541 82.1291 53.541 82.1291 53.459C80.9034 52.3931 82.5377 50.5892 83.7634 51.5731C83.8451 51.6551 83.8451 51.7371 83.9268 51.8191C84.744 52.5571 84.2537 53.787 83.1914 53.951C73.2221 55.4269 63.0077 58.2967 53.4471 61.4945C51.9762 61.9865 51.159 59.6906 52.6299 59.1987Z" fill="#512A00"/>
<path d="M46.914 52.6397C48.4666 51.1638 50.8363 50.5898 52.7975 49.8518C55.821 48.7039 59.0896 47.966 62.113 46.818C67.3428 44.9321 71.6737 44.8502 77.3121 45.0961C78.8646 45.1781 79.1098 47.638 77.4755 47.556C72.5726 47.392 68.16 47.228 63.5022 48.9499C61.2142 49.8518 58.8444 50.4258 56.5564 51.2458C54.4318 51.9837 50.4277 52.7217 48.7934 54.3616C47.6494 55.4275 45.77 53.7876 46.914 52.6397Z" fill="#512A00"/>
<path d="M45.7611 44.8496C45.6794 44.7676 45.5976 44.6856 45.5159 44.6036C44.9439 44.1117 45.0256 43.1277 45.6794 42.6358C47.6405 41.4058 50.0103 40.7499 52.0531 39.684C54.1777 38.618 56.3023 37.7981 58.5904 37.1421C60.4698 36.5681 62.5127 36.0762 64.4738 36.0762C66.0264 36.0762 67.2522 36.7321 68.723 36.8961C70.2756 37.0601 69.8671 39.52 68.3145 39.356C67.0887 39.192 65.9447 38.618 64.719 38.536C62.5944 38.372 60.3064 39.192 58.2635 39.8479C56.2206 40.5039 54.4229 41.3238 52.4617 42.3078C50.7457 43.2097 48.7028 43.7017 47.0685 44.7676C47.1502 44.1117 47.1502 43.4557 47.2319 42.7998C47.3137 42.8818 47.3954 42.9637 47.4771 43.0457C48.6211 44.0297 46.9868 45.8336 45.7611 44.8496Z" fill="#512A00"/>
<path d="M59.3285 95.9327C54.3439 91.833 51.8925 86.0933 50.013 80.1077C48.869 76.4999 47.3981 72.9741 45.9272 69.4483C44.9467 66.9885 44.6198 62.8068 42.7403 60.8389C41.678 59.6909 43.2306 57.8051 44.3746 58.953C45.8455 60.5109 46.3358 62.8068 46.9895 64.7746C48.0518 68.1364 49.5227 71.3342 50.8302 74.614C53.445 81.6656 54.9159 88.9631 61.0446 93.9648C62.1069 95.1128 60.5543 96.9986 59.3285 95.9327Z" fill="#512A00"/>
<path d="M46.2597 95.5237C42.2557 91.9979 39.7225 86.7503 38.1699 81.7486C36.2905 75.6809 35.2282 68.9574 33.9207 62.7257C33.7573 61.8238 34.3293 60.9219 35.3099 61.0858C35.3916 61.0858 35.4733 61.0858 35.555 61.1678C37.1076 61.4958 36.699 63.8737 35.1464 63.6277C35.0647 63.6277 34.983 63.6277 34.9013 63.5457C35.3916 62.9717 35.8002 62.4798 36.2905 61.9058C37.4345 67.1535 38.7419 72.4011 39.8042 77.7308C40.9482 83.5525 43.318 89.7021 47.894 93.7198C49.1197 94.7038 47.4854 96.5896 46.2597 95.5237Z" fill="#512A00"/>
</g>
<defs>
<clipPath id="clip0_1363_1780">
<rect width="101" height="97" fill="white" transform="matrix(-1 0 0 1 101 0)"/>
</clipPath>
</defs>
</svg>
