<svg width="115" height="114" viewBox="0 0 115 114" fill="none" xmlns="http://www.w3.org/2000/svg">
<g clip-path="url(#clip0_1363_1728)">
<path d="M20.4995 90.3007C19.8995 90.0007 19.9995 87.3007 18.2995 89.4007C17.6995 89.3007 16.9995 89.3007 16.3995 89.2007C16.5995 89.6007 16.8995 90.1007 17.0995 90.5007C16.7995 90.9007 16.3995 91.3007 16.0995 91.7007C15.0995 92.4007 16.9995 93.3007 15.9995 94.0007C15.2995 93.9007 13.7995 93.6007 14.1995 94.1007C15.5995 95.9007 15.2995 99.5007 18.7995 99.4007C19.6995 102.501 22.4995 103.301 24.8995 104.601C26.3995 105.401 28.1995 106.301 29.4995 104.701C30.5995 103.401 30.6995 101.501 29.6995 99.8007C29.4995 97.9007 31.1995 94.8007 26.8995 95.7007C25.8995 92.6007 22.9995 91.7007 20.4995 90.3007Z" fill="#C6C6C6"/>
<path d="M55.1034 76.8008C52.8034 76.1008 52.9034 77.7008 52.8034 79.1008C52.0034 80.8008 53.9034 81.0008 54.4034 81.9008C52.8034 85.5008 54.8034 88.4008 59.0034 88.7008C59.3034 88.7008 59.5034 88.5008 59.6034 88.2008C60.0034 87.4008 60.4034 86.6008 60.8034 85.8008C61.9034 84.5008 64.7034 84.9008 64.9034 83.1008C65.2034 79.8008 58.7034 75.8008 55.1034 76.8008Z" fill="#C6C6C6"/>
<path d="M63.8023 59.4008C62.5023 64.0008 64.3023 66.8008 68.9023 67.6008C71.7023 70.3008 72.5023 67.2008 74.0023 65.8008C74.5023 66.2008 74.9023 66.9008 75.6023 66.3008C76.3023 65.7008 76.2023 64.9008 75.8023 64.2008C76.3023 63.3008 75.8023 62.8008 75.0023 62.5008C73.8023 61.4008 73.1023 59.6008 71.1023 59.5008C70.0023 58.8008 68.9023 57.8008 67.7023 57.6008C66.3023 57.4008 64.4023 57.3008 63.8023 59.4008Z" fill="#C6C6C6"/>
<path d="M18.3005 39.0004C16.2005 39.6004 12.9005 45.7004 13.8005 47.4004C13.9005 47.6004 15.6005 49.4004 16.4005 47.3004C17.7005 50.8004 21.0005 52.4004 24.0005 52.6004C25.3005 52.7004 29.6005 51.7004 29.7005 48.0004C29.8005 45.4004 27.7005 44.0004 26.3005 42.3004C25.8005 40.6004 23.8005 41.0004 23.0005 39.9004C21.8005 38.1004 20.3005 37.8004 18.4005 38.7004L18.3005 39.0004Z" fill="#C6C6C6"/>
<path d="M47.1047 56.0995C49.3047 57.3995 48.8047 54.5995 49.9047 54.2995C52.5047 53.3995 50.4047 52.7995 49.7047 52.0995C50.0047 49.1995 47.2047 49.3995 45.8047 48.1995C44.2047 46.8995 39.5047 47.6995 38.3047 49.4995C38.3047 49.5995 38.8047 49.9995 39.1047 50.2995C39.1047 50.6995 39.0047 51.0995 39.0047 51.4995C38.2047 53.7995 40.0047 53.6995 41.3047 53.8995C43.1047 54.9995 44.1047 57.9995 47.1047 56.0995Z" fill="#C6C6C6"/>
<path d="M53.3995 95.7013C51.9995 95.2013 50.3995 94.1013 49.4995 96.4013C45.2995 98.5013 48.0995 99.9013 49.8995 101.501C47.9995 105.301 50.6995 104.601 52.8995 104.501C53.7995 105.701 54.8995 106.601 56.9995 106.001C54.4995 105.701 55.5995 104.201 55.4995 103.201C56.4995 102.301 57.1995 103.001 57.8995 103.601C57.5995 101.901 59.3995 101.501 59.7995 100.201C57.0995 99.5013 56.8995 95.3013 53.3995 95.7013Z" fill="#C6C6C6"/>
<path d="M27.6009 72.2012C28.5009 74.6012 29.5009 76.9012 31.6009 78.5012C32.8009 79.5012 33.2009 81.7012 35.5009 81.3012C35.8009 81.2012 36.0009 81.1012 36.1009 80.8012C37.5009 81.0012 37.9009 80.3012 37.9009 79.1012C37.4009 77.7012 40.5009 76.7012 38.5009 75.1012C39.5009 70.8012 36.0009 69.6012 33.8009 67.2012C32.1009 65.3012 31.1009 66.4012 29.8009 66.3012C29.8009 68.5012 24.9009 69.0012 27.6009 72.2012Z" fill="#C6C6C6"/>
<path d="M67.8009 14.7001C71.0009 14.7001 69.8009 12.8001 69.3009 11.2001C69.9009 8.40012 67.9009 7.30012 66.0009 6.10012C65.7009 4.50012 64.1009 4.20012 63.2009 3.30012C61.8009 2.60012 60.3009 1.70012 59.3009 3.90012C58.6009 4.00012 58.0009 4.20012 57.4009 4.30012C56.4009 3.60012 56.1009 3.90012 56.0009 5.00012C55.5009 10.7001 60.9009 15.2001 67.8009 14.7001Z" fill="#C6C6C6"/>
<path d="M112.506 71.3004C114.306 70.1004 115.706 67.1004 114.306 65.7004C112.606 65.2004 114.206 61.1004 110.806 62.5004C109.306 62.0004 108.406 59.5004 106.106 62.2004C105.006 63.5004 103.806 62.5004 104.006 64.7004C105.106 67.0004 106.106 69.3004 108.506 70.5004C109.906 70.7004 110.506 72.6004 112.506 71.3004Z" fill="#C6C6C6"/>
<path d="M53.4997 29.1008C49.1997 31.0008 48.8997 31.9008 51.5997 34.2008C54.2997 36.0008 56.6997 38.3008 60.2997 38.3008C61.7997 40.0008 62.2997 38.3008 63.1997 37.6008C65.9997 36.8008 66.0997 36.5008 64.3997 33.1008C64.5997 32.7008 64.7997 32.3008 64.1997 32.0008H64.3997C65.7997 30.5008 64.1997 29.7008 63.4997 28.8008C63.2997 28.5008 61.6997 27.4008 61.4997 29.4008C60.4997 29.9008 59.9997 29.2008 59.6997 28.4008C58.9997 26.6008 58.9997 29.2008 58.3997 28.6008C57.9997 28.6008 57.6997 28.5008 57.2997 28.5008C55.8997 27.4008 54.3997 27.0008 53.4997 29.1008Z" fill="#C6C6C6"/>
<path d="M72.6027 102.4C72.2027 101.9 71.3027 101.9 71.3027 103C71.3027 103.2 71.5027 103.5 71.6027 103.7C71.0027 105.3 69.6027 103.6 68.8027 104.3C68.3027 106.4 70.4027 106.9 71.1027 108.3C71.3027 108 71.5027 107.6 71.7027 107.3C72.1027 107.6 72.5027 108 72.8027 108.3C72.9027 112.1 77.8027 109.5 78.1027 114C79.1027 111.5 79.2027 110 80.1027 109.2C84.2027 105.4 80.3027 104.7 77.9027 103.3C77.0027 99.1002 74.2027 104.5 72.6027 102.4Z" fill="#C6C6C6"/>
<path d="M1.69746 38.1009C2.89746 39.1009 3.09746 37.3009 3.89746 37.2009C5.09746 38.4009 6.19746 37.3009 7.29746 37.1009C10.0975 38.7009 10.1975 36.5009 10.6975 34.8009C10.5975 33.8009 10.4975 32.8009 10.4975 31.8009C10.7975 28.9009 8.59746 31.1009 7.79746 30.5009L7.69746 30.3009C7.99746 29.6009 9.89746 29.7009 8.89746 28.4009C7.99746 27.2009 6.99746 28.0009 6.19746 28.8009C5.59746 28.3009 5.09746 27.3009 3.99746 27.7009C0.797458 25.4009 1.49746 29.1009 0.297459 30.0009C-0.602541 31.7009 -4.40254 33.1009 -0.202541 35.4009C-0.502541 36.9009 0.997459 37.3009 1.69746 38.1009Z" fill="#C6C6C6"/>
<path d="M31.0033 34.2999C33.7033 36.0999 37.6033 35.4999 38.9033 32.3999C40.0033 29.6999 37.9033 27.5999 35.5033 26.2999C35.3033 26.0999 35.1033 25.8999 34.9033 25.6999C32.3033 24.3999 30.9033 20.3999 26.9033 22.0999C26.5033 21.7999 26.1033 21.3999 25.7033 21.0999C24.1033 20.9999 22.6033 20.9999 23.5033 23.2999C23.4033 23.6999 23.4033 23.9999 23.3033 24.3999C21.2033 27.2999 21.4033 29.2999 25.3033 29.8999C27.2033 31.3999 27.9033 34.3999 31.0033 34.2999Z" fill="#C6C6C6"/>
<path d="M92.1033 73.3006C91.0033 72.9006 91.0033 74.6006 90.3033 75.1006C88.1033 76.2006 87.8033 78.0006 88.3033 80.2006C85.9033 82.3006 87.6033 83.8006 89.2033 85.2006C91.3033 86.1006 92.9033 87.9006 95.4033 88.1006C96.2033 88.8006 96.7033 90.1006 98.2033 89.4006C98.3033 89.4006 97.9033 88.6006 97.8033 88.1006C98.7033 87.2006 100.603 88.3006 101.003 86.6006C101.103 86.3006 100.003 85.8006 99.4033 85.3006H99.6033C100.203 85.0006 101.103 84.9006 101.203 84.5006C101.503 83.4006 100.203 83.5006 99.7033 83.0006C99.2033 80.0006 96.2033 77.0006 94.4033 77.7006C94.2033 77.5006 94.0033 77.4006 93.7033 77.4006C93.3033 76.0006 94.0033 74.0006 92.1033 73.3006Z" fill="#C6C6C6"/>
<path d="M29.3995 14.0004C31.9995 15.4004 32.7995 13.4004 33.7995 11.7004C34.0995 11.6004 34.2995 11.5004 34.3995 11.2004C35.2995 10.8004 36.1995 10.2004 37.1995 9.90039C39.4995 9.40039 37.5995 8.80039 37.1995 8.30039C36.5995 6.80039 34.5995 7.30039 33.9995 5.90039C33.5995 2.70039 31.5995 1.70039 28.5995 1.90039C28.1995 1.10039 28.1995 -0.0996094 26.6995 -0.0996094C24.3995 0.000390626 27.4995 2.20039 25.6995 2.30039C23.5995 1.10039 23.0995 3.60039 23.1995 4.10039C23.6995 6.00039 23.4995 8.30039 25.6995 9.40039C25.8995 9.60039 25.9995 9.80039 26.1995 10.0004C26.0995 11.0004 26.9995 11.5004 27.3995 12.2004C26.9995 12.6004 25.9995 12.9004 25.9995 13.2004C25.9995 14.0004 26.8995 13.9004 27.4995 14.0004C28.0995 14.2004 28.6995 14.0004 29.3995 14.0004Z" fill="#C6C6C6"/>
<path d="M87.3022 42.4001C87.5022 42.6001 87.6022 42.7001 87.7022 43.0001C87.2022 44.0001 88.1022 44.1001 88.6022 44.5001C89.0022 45.0001 89.3022 44.9001 89.6022 44.5001L89.7022 44.7001C90.7022 44.1001 93.3022 45.1001 92.0022 42.3001L91.8022 42.2001C91.4022 40.5001 96.2022 40.2001 92.9022 37.8001C92.8022 37.5001 92.7022 37.3001 92.5022 37.1001C92.9022 36.3001 92.4022 35.9001 91.9022 35.4001C90.2022 32.9001 88.4022 30.6001 85.1022 33.2001C83.6022 34.1001 82.4022 35.1001 83.3022 37.1001C83.3022 37.5001 83.4022 37.8001 83.4022 38.2001C83.8022 39.0001 83.7022 40.0001 84.6022 40.5001C84.8022 42.0001 85.2022 43.4001 87.3022 42.4001Z" fill="#C6C6C6"/>
<path d="M0.501968 79.6999C1.50197 79.4999 0.801968 82.9999 2.80197 80.7999C4.20197 78.3999 4.10197 75.5999 4.70197 72.9999C3.80197 71.6999 2.70197 70.8999 1.10197 70.8999C0.00196779 69.0999 -1.49803 69.9999 -2.79803 70.3999C-6.29803 71.1999 -6.99803 72.6999 -4.09803 75.1999C-3.79803 75.4999 -3.49803 75.7999 -3.19803 76.0999C-3.79803 76.9999 -3.39803 77.7999 -2.79803 78.4999C-2.59803 81.1999 -0.798032 79.6999 0.501968 79.6999Z" fill="#C6C6C6"/>
<path d="M7.40496 63.7003C7.10496 65.9003 9.90496 66.8004 10.005 66.4004C10.505 63.1004 13.905 65.9003 14.805 63.8003C15.605 63.2003 16.605 63.0004 15.605 61.4004C13.505 58.0004 12.105 54.2003 7.90496 52.6003C7.60496 51.8003 6.70496 51.4004 6.50496 50.4004C6.10496 48.5004 5.00496 47.3003 2.80496 48.3003C2.60496 47.8003 2.90496 47.1003 2.20496 46.8003C-0.895038 45.2003 -1.09504 48.8003 -2.99504 49.5003C-4.79504 51.1003 -2.69504 52.2003 -2.49504 53.6003C-2.59504 54.9003 -1.69504 55.2003 -0.795038 55.5003C1.30496 57.2003 1.20496 61.2003 5.10496 61.1003C5.20496 61.4003 5.30496 61.6004 5.50496 61.9004C5.60496 63.1004 4.90496 65.0003 7.40496 63.7003Z" fill="#C6C6C6"/>
</g>
<defs>
<clipPath id="clip0_1363_1728">
<rect width="120.9" height="114.1" fill="white" transform="translate(-6)"/>
</clipPath>
</defs>
</svg>
