<svg width="121" height="136" viewBox="0 0 121 136" fill="none" xmlns="http://www.w3.org/2000/svg">
<g clip-path="url(#clip0_1363_1966)">
<path d="M90.5285 82.0137C91.1626 83.2498 90.5467 84.399 89.8465 85.4943C89.3617 86.2526 88.7927 86.9571 88.1699 87.7458C86.7625 89.5759 85.3248 91.268 83.3512 92.4987C82.1455 93.2709 81.8388 93.1936 81.0736 92.3483C80.2476 91.2269 80.2103 90.7283 81.1632 89.7945C82.7695 88.2102 83.8701 86.3027 84.917 84.4795C86.0715 82.4877 87.8366 81.9545 89.9457 81.9972C90.0299 82.051 90.1681 82.0206 90.1681 82.0206C90.4443 81.9598 90.4443 81.9598 90.5285 82.0137Z" fill="#512A00"/>
<path d="M71.3144 52.2844C71.2648 54.033 70.403 55.3811 69.1738 56.3756C67.975 57.5083 66.7459 58.5028 65.3785 59.5277C64.2571 60.3537 63.59 60.2833 62.9698 59.7682C62.2349 59.0611 62.0456 57.8719 62.6077 56.807C62.7693 56.5542 62.877 56.3857 63.0386 56.1329C63.823 55.0915 64.5771 53.9119 65.3615 52.8704C66.146 51.8289 67.2509 51.5858 68.5244 51.4504C68.9387 51.3592 69.4677 51.46 69.9125 51.5069C70.7716 51.4626 70.7716 51.4626 71.3144 52.2844Z" fill="#512A00"/>
<path d="M91.6756 69.4527C92.3496 69.8835 92.4712 70.436 92.3166 71.0493C92.0611 72.1915 91.5833 73.3103 90.8527 74.2675C90.2298 75.0562 89.7451 75.8145 89.1222 76.6032C87.9304 78.0963 86.7081 79.4514 85.432 80.8906C85.3243 81.0591 85.048 81.1199 84.5798 81.2954C84.2663 80.8576 83.8685 80.3659 83.5245 79.7899C84.2482 78.4723 85.0022 77.2927 85.5877 76.0054C86.2272 74.6338 86.7823 73.2084 87.2836 71.8672C87.7849 70.5261 89.1522 69.5012 90.5941 69.4734C91.0085 69.3823 91.3151 69.4596 91.6756 69.4527Z" fill="#512A00"/>
<path d="M83.0273 49.9239C82.8284 49.678 82.6834 49.348 82.5383 49.0179C82.8311 48.3742 82.9857 47.761 83.2785 47.1173C84.1638 45.5468 84.9951 44.0606 85.8804 42.4902C86.3113 41.8161 86.6579 41.0882 86.9203 40.3065C87.3912 38.8272 88.6342 38.5536 89.793 38.2262C90.5374 37.99 91.3731 38.1681 92.2322 38.1239C91.0419 42.5852 87.7686 45.4776 85.001 48.6931C84.2165 49.7346 83.9941 49.7111 83.0273 49.9239Z" fill="#512A00"/>
<path d="M104.017 39.3662C103.067 38.9961 102.777 38.3359 102.901 37.5845C103.274 35.3304 103.616 32.9382 103.989 30.684C104.013 30.4617 104.12 30.2932 104.228 30.1247C105.019 29.4437 105.757 28.847 106.808 28.6881C107.997 28.4988 109.069 29.4213 108.814 30.5636C108.666 31.5373 108.38 32.5415 107.926 33.4379C107.071 35.1465 106.132 36.8012 105.108 38.402C104.893 38.7391 104.371 38.9987 104.017 39.3662Z" fill="#512A00"/>
<path d="M54.0166 87.5144C53.703 87.0766 53.4199 86.7769 53.2748 86.4468C53.1298 86.1167 53.0925 85.6181 53.3079 85.2811C54.4694 83.6498 55.6309 82.0186 57.0451 80.5489C57.9981 79.6152 59.4331 79.227 60.875 79.1993C61.1513 79.1385 61.4883 79.3539 61.7949 79.4312C61.9677 81.2033 60.9374 82.4436 59.9306 83.4616C58.6241 84.7628 57.1186 85.8181 55.6132 86.8734C55.1754 87.187 54.5387 87.2547 54.0166 87.5144Z" fill="#512A00"/>
<path d="M71.8095 85.4793C70.5926 84.2267 70.5553 83.7281 71.4171 82.38C71.7941 81.7902 72.2554 81.2543 72.4943 80.6949C72.7871 80.0512 72.9417 79.438 73.2041 78.6562C74.5714 77.6313 76.2288 77.2665 78.0147 77.8147C78.4498 78.805 78.1571 79.4487 77.7566 80.2608C77.0329 81.5785 75.9722 82.6808 74.7969 83.5911C74.1132 84.1035 73.4296 84.616 72.6617 85.0746C72.4158 85.2735 72.1396 85.3343 71.8095 85.4793Z" fill="#512A00"/>
<path d="M12.4217 79.7974C12.3609 79.5212 12.3539 79.1607 12.347 78.8002C13.5831 78.1662 14.7654 77.6164 15.9173 76.9285C16.2473 76.7835 16.5236 76.7227 16.8233 76.4395C18.1906 75.4146 19.8549 75.4103 21.5192 75.4061C21.8797 75.3992 22.301 75.6685 22.6076 75.7458C22.4738 77.4405 20.7902 79.3315 19.2709 79.6658C17.7517 80.0001 16.1177 80.1425 14.5681 80.3387C13.7698 80.6592 13.1261 80.3664 12.4217 79.7974Z" fill="#512A00"/>
<path d="M55.3277 69.124C54.5848 72.3284 50.5202 75.9018 47.4982 75.9876C47.2689 75.6036 46.9554 75.1658 46.5575 74.6742C47.1265 73.9697 47.7259 73.4034 48.2411 72.7832C48.8639 71.9945 49.433 71.2901 49.9716 70.4475C50.9176 69.1533 53.0363 68.2526 54.5155 68.7235C54.8222 68.8008 55.0749 68.9624 55.3277 69.124Z" fill="#512A00"/>
<path d="M15.4552 87.3113C15.3213 89.0061 14.0617 89.8625 12.9706 90.8266C12.9168 90.9109 12.7248 91.0255 12.6405 90.9717C10.9762 90.9759 9.25802 91.0644 7.64755 90.9844C7.06469 90.9679 6.63648 90.3381 5.96244 89.9072C6.36986 89.4555 6.44719 89.1489 6.77728 89.0038C8.20538 88.2552 9.60308 87.3683 11.1458 86.8116C12.0822 86.4607 13.248 86.4938 14.2452 86.4192C14.7438 86.3819 15.2189 86.5669 15.4552 87.3113Z" fill="#512A00"/>
<path d="M36.3556 76.3402C36.868 77.0239 36.6291 77.5833 36.2521 78.173C35.4746 79.575 34.4139 80.6773 32.925 81.1497C31.5742 81.5918 30.2235 82.0338 28.957 82.5298C27.5854 81.8904 27.5854 81.8904 27.6723 80.6404C29.0935 79.5312 30.5685 78.3378 32.0201 77.3667C33.3031 76.2879 34.7686 76.0378 36.3556 76.3402Z" fill="#512A00"/>
<path d="M43.5489 91.6265C43.5324 92.2093 43.6001 92.8461 43.4689 93.237C42.5906 95.1679 41.291 96.8295 38.9126 97.2081C37.8616 97.367 36.9251 97.7179 35.8202 97.9611C35.5301 97.3009 35.4389 96.8865 35.1792 96.3645C36.1322 95.4307 37.0617 94.7194 37.8461 93.6779C38.5229 92.805 39.375 92.4002 40.3653 91.9651C41.3556 91.5299 42.3293 91.6777 43.5489 91.6265Z" fill="#512A00"/>
<path d="M61.9943 92.8535C62.6753 93.6449 62.2444 94.3189 61.9516 94.9625C60.7432 97.0385 59.514 98.0331 56.9506 98.8868C55.242 98.032 55.0901 97.3414 56.0595 95.8248C57.2445 93.9712 58.9419 92.8012 61.2429 92.7292C61.5496 92.8065 61.7719 92.83 61.9943 92.8535Z" fill="#512A00"/>
<path d="M9.82162 95.9368C8.85906 97.8139 7.43789 98.9231 5.32882 98.8804C4.38547 98.8708 3.47252 98.9993 2.52917 98.9897C1.14107 98.9331 0.942167 98.6873 0.638219 97.3061C3.56481 95.1416 8.32156 94.3845 9.82162 95.9368Z" fill="#512A00"/>
<path d="M47.7059 98.3145C47.6702 100.784 44.5047 103.508 41.1291 103.961C40.8998 103.577 40.5862 103.139 40.3569 102.755C41.5819 100.097 45.5595 97.7732 47.7059 98.3145Z" fill="#512A00"/>
</g>
<defs>
<clipPath id="clip0_1363_1966">
<rect width="116.3" height="69" fill="white" transform="translate(0.125 97.9258) rotate(-57.411)"/>
</clipPath>
</defs>
</svg>
