<svg width="213" height="222" viewBox="0 0 213 222" fill="none" xmlns="http://www.w3.org/2000/svg">
<g clip-path="url(#clip0_1363_1748)">
<path d="M150.305 13.1033C150.409 13.0492 150.409 13.0492 150.512 12.9952C151.965 12.4998 149.072 11.2458 148.55 11.255C124.446 11.9933 99.037 21.5765 79.4417 35.2332C56.7521 51.0325 31.4213 76.9009 31.1585 106.399C31.0506 118.041 35.0014 131.909 41.5913 141.502C48.1271 150.992 59.4111 154.447 70.6308 154.249C82.6332 154.038 91.5423 147.147 99.9652 139.325C104.997 134.59 108.347 129.154 111.898 123.35C115.954 116.492 120.067 109.999 122.332 102.233C124.897 93.7836 127.251 85.1812 129.29 76.4799C131.185 68.512 132.19 60.351 133.981 52.4371C135.778 44.7842 136.531 37.1496 138.692 29.438C139.725 25.8702 141.122 22.2437 143.051 19.1298C144.93 16.1735 147.724 14.7148 150.134 12.2711C149.135 11.8711 148.082 11.3676 146.98 11.0217C146.827 11.2332 146.674 11.4447 146.575 11.7596C145.865 12.9206 149.226 14.0619 149.729 13.009C149.882 12.7975 150.035 12.586 150.134 12.2711C150.894 10.9526 147.749 10.2251 146.98 11.0217C143.899 13.947 141.007 15.7206 138.935 19.5678C136.004 25.0484 134.077 31.1898 132.932 37.3175C130.633 49.051 129.117 60.7706 126.558 72.5087C120.958 98.3423 112.408 125.585 91.2078 142.976C79.4745 152.527 60.5054 157.299 48.1879 145.562C39.6418 137.517 35.6139 122.241 34.6827 110.878C32.4179 83.0952 54.497 59.32 74.1992 42.8425C85.8245 33.0848 99.2635 25.5397 113.585 20.6935C124.898 16.8922 137.731 13.4816 149.68 13.1665C148.991 12.6044 148.406 11.9883 147.718 11.4263C147.614 11.4803 147.614 11.4803 147.511 11.5343C146.265 11.9217 149.266 13.3826 150.305 13.1033Z" fill="#79C800"/>
<path d="M143.696 11.55C135.988 18.472 128.546 25.6504 120.518 32.2126C112.698 38.6668 105.088 45.2739 98.2758 52.6499C84.7047 67.5054 73.0554 84.7804 63.9752 102.689C54.5937 121.281 48.263 141.177 43.2908 161.153C38.5658 180.341 35.1499 199.768 34.7169 219.612C34.7399 220.917 38.0917 221.536 38.0733 220.492C38.5063 200.649 41.9221 181.222 46.6472 162.033C51.4757 142.79 57.5053 123.579 66.3247 105.675C75.3417 87.1413 87.4001 69.3893 101.38 54.0567C108.242 46.5233 115.906 40.0196 123.623 33.6195C131.596 26.9538 139.093 19.8789 146.801 12.9569C147.673 12.1063 144.623 10.8029 143.696 11.55Z" fill="#79C800"/>
<path d="M129.554 17.4894C129.658 17.4354 129.604 17.332 129.707 17.2779C130.161 16.3825 126.958 15.2906 126.504 16.186C122.395 22.9402 117.282 29.0334 114.014 36.1381C113.713 36.822 115.184 37.3703 115.499 37.4691C118.59 38.0932 122.13 37.561 125.149 37.0379C127.493 36.7356 129.836 36.4333 132.126 36.0275C133.376 35.901 134.978 34.9332 136.125 34.8607C138.419 34.7159 136.142 32.8768 134.837 32.8998C132.179 33.1033 129.376 34.0401 126.722 34.5046C123.547 34.9782 119.291 36.4104 115.989 35.6335C116.466 36.0427 116.943 36.4518 117.474 36.9645C120.589 30.0713 125.598 24.0321 129.554 17.4894C128.452 17.1435 127.35 16.7975 126.247 16.4516C126.144 16.5056 126.198 16.609 126.095 16.6631C125.744 17.5044 128.947 18.5964 129.554 17.4894Z" fill="#79C800"/>
<path d="M111.164 19.588C108.427 27.2053 105.538 35.0342 102.171 42.4538C101.164 44.5596 98.2551 48.3172 100.33 50.5252C100.861 51.0378 102.278 51.4826 103.002 51.1045C108.89 47.5032 116.398 47.0054 123.029 47.0972C127.1 47.0776 130.789 46.073 134.747 45.5856C136.623 45.3959 133.982 43.6154 133.096 43.6833C132.992 43.7373 132.835 43.6879 132.731 43.7419C130.437 43.8868 132.714 45.7258 134.019 45.7028C134.122 45.6488 134.279 45.6982 134.383 45.6442C133.798 45.0281 133.213 44.412 132.731 43.7419C129.866 44.0534 126.802 44.9949 123.883 45.2029C120.963 45.411 118.03 44.8364 115.061 45.2019C110.162 45.6537 104.494 46.9021 100.311 49.4815C101.202 49.6746 102.093 49.8677 102.984 50.0608C102.079 49.0849 106.727 40.3377 107.073 39.2353C109.311 32.9318 112.233 26.9294 114.471 20.6259C114.97 19.3121 111.559 18.3282 111.164 19.588Z" fill="#79C800"/>
<path d="M98.366 24.8247C96.3281 24.7041 96.0407 26.1708 95.3936 27.957C93.6546 32.9467 92.3386 38.2422 91.126 43.4836C89.9134 48.7251 88.5974 54.0205 87.6458 59.2574C87.2642 61.2999 86.878 63.0815 88.678 64.5114C90.1585 65.5815 91.4045 65.1941 92.9654 64.9056C98.1701 64.0308 103.222 63.3675 108.589 62.803C116.978 61.9765 125.471 61.0959 133.636 59.3337C132.947 58.7716 132.205 58.1061 131.62 57.49C131.413 57.5981 131.152 57.6027 130.945 57.7107C129.074 58.1613 131.922 59.8337 132.961 59.5544C133.168 59.4463 133.429 59.4417 133.636 59.3337C135.611 58.8291 132.555 57.2647 131.62 57.49C119.191 60.1626 106.5 59.8123 94.1206 62.3274C92.6631 62.5619 91.5838 63.5205 90.9895 62.3826C90.5079 61.7125 91.2044 59.7688 91.2941 58.932C92.1607 54.7929 93.3422 50.7526 94.2089 46.6135C94.595 44.8318 98.2454 26.8627 99.7075 26.8891C101.898 26.7983 99.5672 24.8558 98.366 24.8247Z" fill="#79C800"/>
<path d="M80.4779 34.9549C79.0286 44.5331 77.6874 54.3183 76.1347 63.9506C75.475 67.9817 74.9727 72.0622 75.1498 76.1829C75.1234 77.645 74.6257 81.9864 75.5395 83.4841C76.0752 84.2576 77.6499 84.7519 78.4235 84.2162C81.5764 82.438 86.327 82.4586 89.8086 81.562C94.7971 80.2734 100.06 79.763 105.103 78.5778C109.574 77.5594 113.646 77.5398 117.896 75.8466C121.94 74.2615 125.713 72.1591 129.703 70.4705C128.754 69.9131 127.962 69.405 127.012 68.8476C126.702 69.0096 126.391 69.1717 126.185 69.2798C124.84 69.9821 127.841 71.443 128.875 70.9027C129.186 70.7406 129.496 70.5786 129.703 70.4705C131.151 69.7142 127.997 68.4648 127.012 68.8476C123.333 70.3741 119.766 72.3684 116.087 73.8949C110.905 76.0743 104.859 76.5985 99.3983 77.7388C94.612 78.6585 89.8752 79.4206 85.143 80.4437C82.0752 81.1242 78.5752 80.9771 75.8361 82.5392C76.7809 82.8358 77.8292 83.0783 78.72 83.2714C78.0223 82.1875 78.6716 74.6069 78.6532 73.5633C78.6876 69.5954 79.5094 65.8747 79.9623 61.9517C81.061 53.2148 82.5781 44.5227 83.8343 35.8353C84.1262 34.6295 80.6664 33.8031 80.4779 34.9549Z" fill="#79C800"/>
<path d="M62.3566 49.4206C58.7302 59.8725 60.7718 69.076 61.4283 79.6611C61.7272 84.7715 62.5928 89.4543 63.3595 94.452C63.9412 97.8348 62.9757 102.289 64.5965 105.392C64.9747 106.116 66.8103 106.606 67.4804 106.124C72.2793 102.96 78.3701 102.017 83.7724 100.513C89.3322 99.0574 94.0862 96.3113 99.484 94.5457C105.089 92.6721 110.698 91.0593 116.253 89.3431C120.198 88.0729 124.7 85.8533 127.146 82.4694C127.91 81.4119 124.653 80.2165 123.992 81.22C120.373 86.1384 114.183 87.396 108.731 89.0582C103.59 90.5583 98.3448 92.1124 93.4241 94.2872C88.4 96.516 83.5241 98.2724 78.2252 99.7231C73.4976 101.007 68.7114 101.927 64.5827 104.61C65.5275 104.906 66.5758 105.149 67.4666 105.342C66.0034 102.288 66.9504 96.7899 66.1618 93.5152C65.1434 89.0439 64.7548 84.7703 64.4651 80.1818C63.8132 69.8576 61.8211 60.4966 65.3485 50.3597C66.1129 49.3022 62.806 48.2643 62.3566 49.4206Z" fill="#79C800"/>
<path d="M47.3993 65.3957C47.8373 69.5118 47.2362 73.9072 47.5167 77.9739C47.9283 83.5521 49.433 88.9545 50.4158 94.366C51.3401 99.4131 52.4712 104.352 53.8632 109.287C54.7598 112.768 53.8346 116.543 56.0806 119.583C56.6163 120.357 58.191 120.851 58.9646 120.315C61.5462 118.704 65.4106 118.792 68.3209 118.062C71.3347 117.278 74.1819 115.923 77.029 114.568C82.4669 112.123 87.806 109.993 93.3566 108.016C99.321 105.823 105.506 104.304 111.088 101.126C116.462 98.0558 121.13 93.3799 125.758 89.3832C124.759 88.9832 123.706 88.4798 122.604 88.1338C122.554 88.2913 122.401 88.5028 122.298 88.5568C121.588 89.7178 124.791 90.8097 125.452 89.8062C125.501 89.6487 125.654 89.4372 125.758 89.3832C126.518 88.0648 123.427 87.4407 122.604 88.1338C117.459 92.4006 112.485 97.4996 106.535 100.476C100.791 103.343 94.0393 105.29 87.9669 107.276C83.037 108.929 78.0669 111.261 73.4071 113.431C69.6289 115.273 66.0979 116.327 61.9864 117.026C60.1645 117.319 57.9783 117.671 56.2737 118.693C57.2186 118.989 58.2669 119.232 59.1577 119.425C57.3392 116.951 58.607 114.841 58.0886 112.083C57.7414 110.158 56.7196 108.453 56.2149 106.479C54.8815 101.909 54.2768 97.2211 53.4653 92.6418C52.5456 87.8556 51.2617 83.128 50.9133 78.175C50.6822 73.9509 51.2339 69.7129 50.7959 65.5968C50.674 64.6071 47.2188 64.0416 47.3993 65.3957Z" fill="#79C800"/>
<path d="M35.4764 84.9206C36.2018 87.5701 36.3018 90.2827 37.0271 92.9321C37.8651 96.0494 39.6388 98.9414 40.3733 102.113C41.6665 107.362 42.8562 112.666 44.4103 117.91C46.5771 125.337 51.3313 134.44 59.9544 132.044C71.2268 128.922 82.1119 124.554 92.997 120.186C103.518 115.876 115.861 114.301 121.989 103.596C122.443 102.701 120.085 102.221 119.667 102.176C119.564 102.23 119.406 102.18 119.303 102.234C117.058 102.222 119.389 104.164 120.59 104.195C120.693 104.141 120.851 104.191 120.954 104.137C120.162 103.629 119.425 103.224 118.633 102.716C113.166 112.417 101.871 114.235 92.3303 117.9C82.6325 121.517 73.1509 125.547 63.2865 128.592C61.6762 129.038 57.7451 131.091 56.2784 130.803C54.0784 130.372 51.8186 126.549 50.7427 124.741C48.1633 120.559 47.7747 116.285 46.3378 111.769C45.009 107.46 44.2021 103.141 42.5629 98.9942C40.8651 94.4827 40.2651 90.0562 39.0351 85.4321C38.4902 84.1367 35.1925 83.6206 35.4764 84.9206Z" fill="#79C800"/>
<path d="M31.3468 108.276C30.6388 115.492 34.0344 124.515 38.4678 130.231C41.1369 133.577 44.022 137.337 47.0508 140.363C48.8014 141.95 49.9578 142.4 52.2026 142.413C61.7038 142.454 71.6005 141.235 80.912 139.401C90.6914 137.453 99.6972 136.042 107.41 129.381C107.873 129.007 107.184 128.445 106.919 128.189C106.761 128.139 106.653 127.932 106.496 127.883C105.438 127.118 102.523 127.588 104.373 128.86C104.53 128.909 104.638 129.116 104.796 129.166C104.58 128.752 104.418 128.442 104.305 127.974C97.1592 134.207 88.8327 135.659 79.8315 137.332C72.0269 138.774 64.2176 139.956 56.3406 140.252C52.8451 140.365 51.4555 141.486 49.1152 139.022C46.5634 136.404 43.899 133.319 41.6035 130.437C37.4356 124.977 34.0492 116.476 34.7618 109.521C34.8376 107.901 31.4318 107.178 31.3468 108.276Z" fill="#79C800"/>
</g>
<defs>
<clipPath id="clip0_1363_1748">
<rect width="198.983" height="146.466" fill="white" transform="translate(212.18 129.828) rotate(152.425)"/>
</clipPath>
</defs>
</svg>
