<svg width="245" height="138" viewBox="0 0 245 138" fill="none" xmlns="http://www.w3.org/2000/svg">
<path d="M175.656 95.4592C175.656 93.6848 176.15 92.3033 177.137 91.3148C178.124 90.3263 179.498 89.832 181.26 89.832C183.067 89.832 184.458 90.3189 185.436 91.2926C186.413 92.2613 186.901 93.6205 186.901 95.3702C186.901 96.6404 186.687 97.6833 186.257 98.4989C185.833 99.3094 185.216 99.9421 184.407 100.397C183.602 100.847 182.598 101.071 181.394 101.071C180.17 101.071 179.155 100.876 178.351 100.486C177.551 100.095 176.902 99.4775 176.404 98.6323C175.905 97.7871 175.656 96.7294 175.656 95.4592ZM179.01 95.474C179.01 96.5712 179.212 97.3596 179.617 97.839C180.026 98.3184 180.582 98.5582 181.282 98.5582C182.003 98.5582 182.561 98.3234 182.956 97.8538C183.35 97.3843 183.548 96.5416 183.548 95.3257C183.548 94.3026 183.341 93.5563 182.926 93.0867C182.516 92.6122 181.959 92.375 181.253 92.375C180.577 92.375 180.034 92.6147 179.624 93.0941C179.215 93.5736 179.01 94.3669 179.01 95.474Z" fill="#FA9100"/>
<path d="M161.227 129.176C161.227 127.402 161.72 126.02 162.707 125.032C163.694 124.043 165.069 123.549 166.831 123.549C168.637 123.549 170.029 124.036 171.006 125.009C171.983 125.978 172.472 127.337 172.472 129.087C172.472 130.357 172.257 131.4 171.828 132.216C171.403 133.026 170.786 133.659 169.977 134.114C169.172 134.563 168.168 134.788 166.964 134.788C165.74 134.788 164.726 134.593 163.921 134.203C163.122 133.812 162.473 133.194 161.974 132.349C161.476 131.504 161.227 130.446 161.227 129.176ZM164.58 129.191C164.58 130.288 164.782 131.076 165.187 131.556C165.597 132.035 166.152 132.275 166.853 132.275C167.573 132.275 168.131 132.04 168.526 131.571C168.921 131.101 169.118 130.258 169.118 129.043C169.118 128.019 168.911 127.273 168.496 126.804C168.087 126.329 167.529 126.092 166.823 126.092C166.147 126.092 165.604 126.332 165.195 126.811C164.785 127.29 164.58 128.084 164.58 129.191Z" fill="#FA9100"/>
<path d="M121.148 29.6271C121.148 27.8527 121.642 26.4713 122.629 25.4828C123.616 24.4943 124.991 24 126.752 24C128.559 24 129.951 24.4868 130.928 25.4605C131.905 26.4293 132.394 27.7885 132.394 29.5382C132.394 30.8084 132.179 31.8513 131.749 32.6668C131.325 33.4774 130.708 34.1101 129.899 34.5648C129.094 35.0145 128.09 35.2394 126.886 35.2394C125.662 35.2394 124.648 35.0442 123.843 34.6537C123.044 34.2633 122.395 33.6455 121.896 32.8003C121.398 31.9551 121.148 30.8974 121.148 29.6271ZM124.502 29.642C124.502 30.7392 124.704 31.5276 125.109 32.007C125.519 32.4864 126.074 32.7261 126.775 32.7261C127.495 32.7261 128.053 32.4914 128.448 32.0218C128.843 31.5523 129.04 30.7096 129.04 29.4937C129.04 28.4706 128.833 27.7242 128.418 27.2547C128.009 26.7802 127.451 26.543 126.745 26.543C126.069 26.543 125.526 26.7827 125.116 27.2621C124.707 27.7415 124.502 28.5348 124.502 29.642Z" fill="#FA9100"/>
<path d="M121.148 112.311H124.387L128.612 118.528V112.311H131.881V123.55H128.612L124.41 117.378V123.55H121.148V112.311Z" fill="#FA9100"/>
<path d="M146.797 68.1543H149.941L154.044 74.372V68.1543H157.218V79.3937H154.044L149.963 73.222V79.3937H146.797V68.1543Z" fill="#FA9100"/>
<path d="M147.602 105.318L150.792 105.118C150.861 105.637 151.002 106.032 151.214 106.304C151.56 106.744 152.053 106.964 152.695 106.964C153.174 106.964 153.541 106.852 153.798 106.63C154.059 106.403 154.19 106.141 154.19 105.844C154.19 105.562 154.067 105.31 153.82 105.088C153.573 104.865 153.001 104.655 152.103 104.458C150.632 104.127 149.583 103.687 148.956 103.138C148.325 102.589 148.009 101.89 148.009 101.04C148.009 100.481 148.169 99.955 148.49 99.4608C148.816 98.9616 149.302 98.5711 149.948 98.2894C150.6 98.0027 151.491 97.8594 152.621 97.8594C154.008 97.8594 155.064 98.1189 155.789 98.6378C156.52 99.1519 156.954 99.9723 157.092 101.099L153.931 101.285C153.847 100.795 153.67 100.439 153.398 100.217C153.132 99.9946 152.761 99.8834 152.288 99.8834C151.898 99.8834 151.604 99.9674 151.407 100.135C151.209 100.299 151.111 100.499 151.111 100.736C151.111 100.909 151.192 101.065 151.355 101.203C151.513 101.346 151.888 101.48 152.48 101.603C153.946 101.92 154.995 102.241 155.626 102.567C156.263 102.888 156.724 103.289 157.011 103.768C157.302 104.248 157.447 104.784 157.447 105.377C157.447 106.074 157.255 106.716 156.87 107.305C156.485 107.893 155.947 108.34 155.256 108.647C154.565 108.948 153.694 109.099 152.643 109.099C150.797 109.099 149.519 108.743 148.808 108.031C148.098 107.319 147.695 106.415 147.602 105.318Z" fill="#FA9100"/>
<path d="M121.148 126.76H124.616V130.693H128.406V126.76H131.889V137.999H128.406V133.453H124.616V137.999H121.148V126.76Z" fill="#FA9100"/>
<path d="M204.629 74.7278L206.837 75.3962C206.688 76.0163 206.455 76.5342 206.136 76.9501C205.817 77.366 205.42 77.6797 204.946 77.8914C204.475 78.103 203.874 78.2088 203.144 78.2088C202.258 78.2088 201.533 78.0807 200.97 77.8245C200.41 77.5646 199.926 77.1098 199.518 76.46C199.11 75.8102 198.906 74.9785 198.906 73.9648C198.906 72.6133 199.264 71.5755 199.98 70.8514C200.699 70.1236 201.715 69.7598 203.027 69.7598C204.054 69.7598 204.861 69.9677 205.446 70.3836C206.036 70.7994 206.473 71.4381 206.759 72.2995L204.534 72.7952C204.457 72.5464 204.375 72.3645 204.29 72.2494C204.149 72.0563 203.976 71.9078 203.772 71.8038C203.569 71.6998 203.341 71.6479 203.088 71.6479C202.517 71.6479 202.08 71.8781 201.776 72.3385C201.546 72.6801 201.431 73.2166 201.431 73.9481C201.431 74.8541 201.568 75.476 201.843 75.8139C202.117 76.1481 202.503 76.3152 202.999 76.3152C203.481 76.3152 203.845 76.1796 204.089 75.9086C204.338 75.6375 204.518 75.244 204.629 74.7278Z" fill="#FA9100"/>
<path d="M208.077 69.899H210.596V72.7562H213.349V69.899H215.88V78.064H213.349V74.7613H210.596V78.064H208.077V69.899Z" fill="#FA9100"/>
<path d="M218.318 77.4335L217.033 77.203C217.14 76.793 217.344 76.4789 217.647 76.2606C217.952 76.0423 218.382 75.9331 218.938 75.9331C219.577 75.9331 220.038 76.0523 220.323 76.2907C220.608 76.529 220.75 76.8287 220.75 77.1896C220.75 77.4012 220.692 77.5928 220.577 77.7644C220.461 77.9359 220.286 78.0863 220.053 78.2155C220.242 78.2623 220.387 78.3169 220.487 78.3793C220.649 78.4795 220.775 78.6121 220.864 78.7769C220.955 78.9396 221.001 79.1345 221.001 79.3617C221.001 79.6469 220.926 79.9209 220.777 80.1838C220.628 80.4445 220.413 80.6461 220.133 80.7887C219.853 80.929 219.485 80.9992 219.028 80.9992C218.584 80.9992 218.232 80.9468 217.974 80.8421C217.718 80.7374 217.507 80.5848 217.34 80.3843C217.175 80.1816 217.049 79.9276 216.96 79.6224L218.318 79.4419C218.371 79.716 218.453 79.9064 218.565 80.0134C218.678 80.1181 218.822 80.1704 218.995 80.1704C219.178 80.1704 219.329 80.1036 219.449 79.9699C219.571 79.8363 219.632 79.658 219.632 79.4353C219.632 79.208 219.573 79.032 219.456 78.9073C219.34 78.7825 219.182 78.7201 218.982 78.7201C218.875 78.7201 218.728 78.7469 218.541 78.8003L218.611 77.8279C218.687 77.839 218.746 77.8446 218.788 77.8446C218.966 77.8446 219.114 77.7878 219.232 77.6742C219.352 77.5605 219.412 77.4258 219.412 77.2698C219.412 77.1205 219.368 77.0013 219.279 76.9122C219.19 76.8231 219.067 76.7786 218.912 76.7786C218.752 76.7786 218.621 76.8276 218.521 76.9256C218.421 77.0214 218.353 77.1907 218.318 77.4335Z" fill="#FA9100"/>
<path d="M175.77 28.9681L177.977 29.6364C177.829 30.2565 177.596 30.7745 177.277 31.1903C176.958 31.6062 176.561 31.92 176.087 32.1316C175.616 32.3432 175.015 32.4491 174.285 32.4491C173.399 32.4491 172.674 32.321 172.11 32.0648C171.55 31.8049 171.066 31.35 170.659 30.7002C170.251 30.0504 170.047 29.2187 170.047 28.205C170.047 26.8535 170.405 25.8157 171.12 25.0916C171.839 24.3639 172.855 24 174.168 24C175.195 24 176.001 24.2079 176.587 24.6238C177.177 25.0397 177.614 25.6783 177.9 26.5397L175.675 27.0354C175.597 26.7867 175.516 26.6047 175.43 26.4896C175.289 26.2965 175.117 26.148 174.913 26.044C174.709 25.9401 174.481 25.8881 174.229 25.8881C173.658 25.8881 173.221 26.1183 172.917 26.5787C172.687 26.9203 172.572 27.4569 172.572 28.1883C172.572 29.0943 172.709 29.7163 172.983 30.0541C173.258 30.3883 173.643 30.5554 174.14 30.5554C174.622 30.5554 174.985 30.4199 175.23 30.1488C175.478 29.8778 175.658 29.4842 175.77 28.9681Z" fill="#FA9100"/>
<path d="M179.218 24.1392H181.737V26.9964H184.49V24.1392H187.02V32.3043H184.49V29.0015H181.737V32.3043H179.218V24.1392Z" fill="#FA9100"/>
<path d="M189.458 31.6738L188.174 31.4432C188.28 31.0333 188.485 30.7192 188.788 30.5008C189.092 30.2825 189.523 30.1733 190.079 30.1733C190.717 30.1733 191.179 30.2925 191.464 30.5309C191.749 30.7693 191.891 31.0689 191.891 31.4298C191.891 31.6415 191.833 31.8331 191.717 32.0046C191.602 32.1762 191.427 32.3265 191.194 32.4558C191.383 32.5025 191.527 32.5571 191.627 32.6195C191.79 32.7198 191.915 32.8523 192.004 33.0172C192.096 33.1798 192.141 33.3747 192.141 33.602C192.141 33.8871 192.067 34.1612 191.918 34.424C191.769 34.6847 191.554 34.8863 191.274 35.0289C190.993 35.1693 190.625 35.2394 190.169 35.2394C189.724 35.2394 189.373 35.1871 189.115 35.0824C188.859 34.9777 188.648 34.8251 188.481 34.6246C188.316 34.4218 188.189 34.1678 188.1 33.8626L189.458 33.6822C189.512 33.9562 189.594 34.1467 189.705 34.2536C189.819 34.3583 189.962 34.4107 190.136 34.4107C190.318 34.4107 190.469 34.3438 190.59 34.2102C190.712 34.0765 190.773 33.8983 190.773 33.6755C190.773 33.4483 190.714 33.2723 190.596 33.1475C190.481 33.0227 190.323 32.9604 190.122 32.9604C190.016 32.9604 189.869 32.9871 189.682 33.0406L189.752 32.0681C189.828 32.0792 189.887 32.0848 189.929 32.0848C190.107 32.0848 190.255 32.028 190.373 31.9144C190.493 31.8008 190.553 31.666 190.553 31.51C190.553 31.3608 190.508 31.2416 190.419 31.1525C190.33 31.0634 190.208 31.0188 190.052 31.0188C189.892 31.0188 189.762 31.0678 189.662 31.1658C189.562 31.2616 189.494 31.4309 189.458 31.6738Z" fill="#FA9100"/>
<path fill-rule="evenodd" clip-rule="evenodd" d="M76.1826 57.934C75.6866 57.6472 75.0754 57.6472 74.5793 57.934L49.8016 72.2605C49.3056 72.5473 49 73.0774 49 73.651V102.304C49 102.878 49.3056 103.408 49.8016 103.695L74.5793 118.021C75.0754 118.308 75.6866 118.308 76.1826 118.021L100.96 103.695C101.456 103.408 101.762 102.878 101.762 102.304V73.651C101.762 73.0774 101.456 72.5473 100.96 72.2605L76.1826 57.934ZM76.1826 61.1459C75.6865 60.8591 75.0754 60.8591 74.5793 61.1459L52.5786 73.8668C52.0825 74.1536 51.7769 74.6836 51.7769 75.2573V100.699C51.7769 101.273 52.0825 101.803 52.5786 102.09L74.5793 114.81C75.0754 115.097 75.6865 115.097 76.1826 114.81L98.1833 102.09C98.6794 101.803 98.985 101.273 98.985 100.699V75.2573C98.985 74.6836 98.6794 74.1536 98.1833 73.8668L76.1826 61.1459Z" fill="#79C800"/>
<path d="M53.8098 77.5886C53.8098 76.8127 54.4379 76.1836 55.2127 76.1836C55.9874 76.1836 56.6155 76.8127 56.6155 77.5886V98.8632C56.6155 99.6391 55.9874 100.268 55.2127 100.268C54.4379 100.268 53.8098 99.6391 53.8098 98.8632V77.5886Z" fill="#79C800"/>
<path d="M121.949 39.0534C121.949 38.2774 122.577 37.6484 123.352 37.6484C124.126 37.6484 124.754 38.2774 124.754 39.0534V58.7224C124.754 59.4983 124.126 60.1273 123.352 60.1273C122.577 60.1273 121.949 59.4983 121.949 58.7224V39.0534Z" fill="#79C800"/>
<path d="M127.56 39.0534C127.56 38.2774 128.188 37.6484 128.963 37.6484C129.738 37.6484 130.366 38.2774 130.366 39.0534V58.7224C130.366 59.4983 129.738 60.1273 128.963 60.1273C128.188 60.1273 127.56 59.4983 127.56 58.7224V39.0534Z" fill="#79C800"/>
<path d="M176.46 39.0534C176.46 38.2774 177.088 37.6484 177.863 37.6484C178.638 37.6484 179.266 38.2774 179.266 39.0534V58.7224C179.266 59.4983 178.638 60.1273 177.863 60.1273C177.088 60.1273 176.46 59.4983 176.46 58.7224V39.0534Z" fill="#79C800"/>
<path d="M94.2644 99.365C94.9354 98.977 95.7934 99.2073 96.1808 99.8792C96.5682 100.551 96.3383 101.41 95.6673 101.798L77.27 112.436C76.5991 112.824 75.7411 112.593 75.3537 111.921C74.9663 111.25 75.1962 110.39 75.8672 110.002L94.2644 99.365Z" fill="#79C800"/>
<path d="M75.8672 66.4746C75.1962 66.0866 74.9664 65.2274 75.3537 64.5554C75.7411 63.8834 76.5991 63.6532 77.2701 64.0412L95.6673 74.6785C96.3383 75.0665 96.5682 75.9257 96.1808 76.5977C95.7934 77.2696 94.9355 77.4999 94.2645 77.1119L75.8672 66.4746Z" fill="#79C800"/>
<path d="M126.757 60.4582C127.428 60.0702 127.658 59.211 127.271 58.539C126.884 57.867 126.026 57.6368 125.355 58.0247L100.718 72.2698C100.047 72.6578 99.8169 73.517 100.204 74.189C100.592 74.8609 101.45 75.0912 102.121 74.7032L126.757 60.4582Z" fill="#79C800"/>
<path d="M178.407 60.052C179.078 59.6641 179.308 58.8048 178.92 58.1329C178.533 57.4609 177.675 57.2307 177.004 57.6186L160.039 67.4278C159.368 67.8158 159.138 68.675 159.525 69.347C159.913 70.019 160.771 70.2492 161.442 69.8612L178.407 60.052Z" fill="#79C800"/>
<path d="M125.569 60.4582C124.898 60.0702 124.668 59.211 125.055 58.539C125.442 57.867 126.3 57.6368 126.971 58.0247L144.181 67.9751C144.852 68.363 145.081 69.2223 144.694 69.8942C144.307 70.5662 143.449 70.7964 142.778 70.4085L125.569 60.4582Z" fill="#79C800"/>
<path d="M177.675 60.052C177.004 59.6641 176.774 58.8048 177.161 58.1329C177.549 57.4609 178.407 57.2307 179.078 57.6186L196.287 67.569C196.958 67.9569 197.188 68.8162 196.8 69.4881C196.413 70.1601 195.555 70.3903 194.884 70.0024L177.675 60.052Z" fill="#79C800"/>
<path d="M119.165 112.556C119.836 112.944 120.066 113.803 119.678 114.475C119.291 115.147 118.433 115.377 117.762 114.989L99.6797 104.534C99.0087 104.146 98.7789 103.287 99.1662 102.615C99.5536 101.943 100.412 101.713 101.083 102.101L119.165 112.556Z" fill="#79C800"/>
<path d="M143.403 106.253C144.074 105.865 144.932 106.095 145.319 106.767C145.707 107.439 145.477 108.299 144.806 108.687L134.988 114.363C134.317 114.751 133.459 114.521 133.071 113.849C132.684 113.177 132.914 112.318 133.585 111.93L143.403 106.253Z" fill="#79C800"/>
<path d="M170.372 94.1908C171.123 94.0001 171.886 94.4554 172.076 95.2075C172.267 95.9596 171.812 96.7239 171.061 96.9145L160.071 99.7037C159.32 99.8943 158.557 99.4391 158.367 98.687C158.177 97.9348 158.631 97.1706 159.382 96.9799L170.372 94.1908Z" fill="#79C800"/>
<path d="M166.111 119.432C166.49 120.109 166.248 120.965 165.572 121.344C164.896 121.722 164.041 121.48 163.663 120.803L158.128 110.894C157.75 110.217 157.992 109.361 158.668 108.982C159.344 108.604 160.199 108.846 160.577 109.523L166.111 119.432Z" fill="#79C800"/>
<path d="M171.975 99.0077C172.726 98.817 173.489 99.2723 173.679 100.024C173.87 100.777 173.415 101.541 172.664 101.731L161.675 104.521C160.924 104.711 160.161 104.256 159.97 103.504C159.78 102.752 160.234 101.987 160.985 101.797L171.975 99.0077Z" fill="#79C800"/>
<path d="M161.881 122.23C162.259 122.907 162.017 123.763 161.341 124.142C160.665 124.52 159.81 124.279 159.432 123.601L153.897 113.693C153.519 113.015 153.761 112.159 154.437 111.781C155.113 111.402 155.968 111.644 156.346 112.321L161.881 122.23Z" fill="#79C800"/>
<path d="M150.808 83.2083C150.808 82.4324 151.436 81.8034 152.21 81.8034C152.985 81.8034 153.613 82.4324 153.613 83.2083V94.5619C153.613 95.3378 152.985 95.9668 152.21 95.9668C151.436 95.9668 150.808 95.3378 150.808 94.5619V83.2083Z" fill="#79C800"/>
</svg>
