<svg width="245" height="138" viewBox="0 0 245 138" fill="none" xmlns="http://www.w3.org/2000/svg">
<path d="M171.969 92.0987C171.969 90.1843 172.502 88.6937 173.57 87.6272C174.637 86.5606 176.124 86.0273 178.029 86.0273C179.982 86.0273 181.487 86.5526 182.544 87.6032C183.601 88.6484 184.129 90.1149 184.129 92.0027C184.129 93.3733 183.897 94.4985 183.433 95.3784C182.974 96.253 182.307 96.9356 181.431 97.4262C180.561 97.9115 179.475 98.1541 178.173 98.1541C176.849 98.1541 175.753 97.9435 174.883 97.5222C174.018 97.1009 173.316 96.4343 172.777 95.5224C172.238 94.6105 171.969 93.4693 171.969 92.0987ZM175.595 92.1147C175.595 93.2986 175.814 94.1492 176.252 94.6665C176.695 95.1837 177.295 95.4424 178.053 95.4424C178.832 95.4424 179.435 95.1891 179.862 94.6825C180.289 94.1758 180.503 93.2666 180.503 91.9547C180.503 90.8509 180.278 90.0456 179.83 89.539C179.387 89.027 178.784 88.7711 178.021 88.7711C177.29 88.7711 176.703 89.0297 176.26 89.547C175.817 90.0643 175.595 90.9202 175.595 92.1147Z" fill="#EE4A13"/>
<path d="M156.367 128.48C156.367 126.565 156.901 125.075 157.968 124.008C159.036 122.941 160.522 122.408 162.427 122.408C164.381 122.408 165.886 122.933 166.942 123.984C167.999 125.029 168.528 126.496 168.528 128.384C168.528 129.754 168.295 130.879 167.831 131.759C167.372 132.634 166.705 133.316 165.83 133.807C164.96 134.292 163.874 134.535 162.571 134.535C161.248 134.535 160.151 134.324 159.281 133.903C158.417 133.482 157.715 132.815 157.176 131.903C156.637 130.991 156.367 129.85 156.367 128.48ZM159.994 128.496C159.994 129.679 160.213 130.53 160.65 131.047C161.093 131.565 161.694 131.823 162.451 131.823C163.231 131.823 163.834 131.57 164.261 131.063C164.688 130.557 164.901 129.647 164.901 128.336C164.901 127.232 164.677 126.426 164.229 125.92C163.786 125.408 163.183 125.152 162.419 125.152C161.688 125.152 161.101 125.411 160.658 125.928C160.215 126.445 159.994 127.301 159.994 128.496Z" fill="#EE4A13"/>
<path d="M113.016 21.0714C113.016 19.1569 113.549 17.6664 114.617 16.5998C115.684 15.5333 117.17 15 119.076 15C121.029 15 122.534 15.5253 123.591 16.5758C124.648 17.6211 125.176 19.0876 125.176 20.9754C125.176 22.3459 124.944 23.4711 124.48 24.351C124.021 25.2256 123.353 25.9082 122.478 26.3988C121.608 26.8841 120.522 27.1268 119.22 27.1268C117.896 27.1268 116.8 26.9161 115.93 26.4948C115.065 26.0735 114.363 25.4069 113.824 24.495C113.285 23.5831 113.016 22.4419 113.016 21.0714ZM116.642 21.0874C116.642 22.2713 116.861 23.1218 117.299 23.6391C117.742 24.1564 118.342 24.415 119.1 24.415C119.879 24.415 120.482 24.1617 120.909 23.6551C121.336 23.1485 121.55 22.2393 121.55 20.9274C121.55 19.8235 121.325 19.0183 120.877 18.5116C120.434 17.9997 119.831 17.7437 119.068 17.7437C118.337 17.7437 117.75 18.0024 117.307 18.5196C116.864 19.0369 116.642 19.8928 116.642 21.0874Z" fill="#EE4A13"/>
<path d="M113.016 110.281H116.517L121.087 116.99V110.281H124.622V122.408H121.087L116.542 115.749V122.408H113.016V110.281Z" fill="#EE4A13"/>
<path d="M140.758 62.6406H144.158L148.595 69.3492V62.6406H152.027V74.7674H148.595L144.182 68.1084V74.7674H140.758V62.6406Z" fill="#EE4A13"/>
<path d="M141.625 102.737L145.075 102.521C145.15 103.081 145.302 103.507 145.532 103.801C145.905 104.275 146.439 104.512 147.133 104.512C147.65 104.512 148.048 104.392 148.326 104.152C148.608 103.907 148.75 103.625 148.75 103.305C148.75 103.001 148.616 102.729 148.35 102.489C148.083 102.249 147.464 102.022 146.492 101.809C144.902 101.451 143.768 100.977 143.09 100.385C142.407 99.7929 142.065 99.0383 142.065 98.1211C142.065 97.5185 142.239 96.9506 142.586 96.4173C142.938 95.8787 143.464 95.4574 144.163 95.1534C144.867 94.8441 145.831 94.6895 147.053 94.6895C148.552 94.6895 149.695 94.9694 150.479 95.5294C151.269 96.084 151.739 96.9692 151.888 98.1851L148.47 98.3851C148.379 97.8571 148.187 97.4732 147.893 97.2332C147.605 96.9932 147.205 96.8732 146.692 96.8732C146.271 96.8732 145.953 96.9639 145.74 97.1452C145.526 97.3212 145.42 97.5372 145.42 97.7931C145.42 97.9798 145.508 98.1478 145.684 98.2971C145.855 98.4517 146.26 98.5957 146.901 98.729C148.486 99.0703 149.62 99.417 150.303 99.7689C150.991 100.116 151.49 100.548 151.8 101.065C152.115 101.582 152.272 102.161 152.272 102.801C152.272 103.553 152.064 104.246 151.648 104.88C151.232 105.515 150.65 105.998 149.903 106.328C149.156 106.654 148.214 106.816 147.077 106.816C145.081 106.816 143.698 106.432 142.93 105.664C142.161 104.896 141.726 103.921 141.625 102.737Z" fill="#EE4A13"/>
<path d="M113.016 125.873H116.766V130.117H120.864V125.873H124.63V138H120.864V133.095H116.766V138H113.016V125.873Z" fill="#EE4A13"/>
<path d="M203.298 69.7333L205.685 70.4545C205.525 71.1235 205.272 71.6824 204.928 72.131C204.583 72.5797 204.154 72.9183 203.641 73.1466C203.131 73.375 202.482 73.4892 201.692 73.4892C200.734 73.4892 199.95 73.3509 199.341 73.0745C198.735 72.7941 198.212 72.3033 197.771 71.6022C197.33 70.9011 197.109 70.0038 197.109 68.9101C197.109 67.4518 197.496 66.3321 198.27 65.5509C199.048 64.7657 200.146 64.373 201.566 64.373C202.676 64.373 203.548 64.5974 204.182 65.0461C204.819 65.4948 205.293 66.1838 205.601 67.1133L203.196 67.6481C203.111 67.3797 203.023 67.1834 202.931 67.0592C202.779 66.8509 202.592 66.6906 202.372 66.5785C202.151 66.4663 201.905 66.4102 201.632 66.4102C201.015 66.4102 200.541 66.6586 200.213 67.1554C199.964 67.5239 199.84 68.1028 199.84 68.892C199.84 69.8696 199.988 70.5406 200.285 70.9052C200.581 71.2657 200.998 71.446 201.536 71.446C202.057 71.446 202.45 71.2998 202.714 71.0073C202.983 70.7149 203.178 70.2902 203.298 69.7333Z" fill="#EE4A13"/>
<path d="M207.027 64.5233H209.751V67.606H212.728V64.5233H215.464V73.3329H212.728V69.7694H209.751V73.3329H207.027V64.5233Z" fill="#EE4A13"/>
<path d="M218.101 72.6527L216.712 72.4039C216.827 71.9616 217.048 71.6227 217.376 71.3871C217.705 71.1515 218.171 71.0338 218.772 71.0338C219.462 71.0338 219.962 71.1623 220.27 71.4195C220.577 71.6767 220.731 72 220.731 72.3894C220.731 72.6178 220.669 72.8245 220.544 73.0096C220.419 73.1947 220.23 73.3569 219.977 73.4964C220.182 73.5468 220.338 73.6057 220.446 73.673C220.622 73.7812 220.758 73.9242 220.854 74.1021C220.953 74.2776 221.002 74.4879 221.002 74.7331C221.002 75.0408 220.921 75.3364 220.76 75.62C220.599 75.9013 220.367 76.1188 220.064 76.2727C219.761 76.4241 219.363 76.4998 218.869 76.4998C218.388 76.4998 218.008 76.4433 217.729 76.3303C217.453 76.2174 217.224 76.0527 217.044 75.8364C216.866 75.6176 216.728 75.3436 216.632 75.0143L218.101 74.8196C218.159 75.1153 218.248 75.3208 218.368 75.4362C218.491 75.5491 218.646 75.6056 218.833 75.6056C219.031 75.6056 219.194 75.5335 219.324 75.3893C219.456 75.2451 219.523 75.0528 219.523 74.8124C219.523 74.5672 219.459 74.3773 219.331 74.2427C219.206 74.1081 219.035 74.0408 218.819 74.0408C218.703 74.0408 218.545 74.0696 218.343 74.1273L218.418 73.0781C218.5 73.0901 218.564 73.0961 218.61 73.0961C218.802 73.0961 218.962 73.0348 219.09 72.9123C219.219 72.7897 219.284 72.6442 219.284 72.476C219.284 72.3149 219.236 72.1863 219.14 72.0902C219.044 71.994 218.912 71.946 218.743 71.946C218.57 71.946 218.429 71.9988 218.321 72.1046C218.213 72.208 218.139 72.3906 218.101 72.6527Z" fill="#EE4A13"/>
<path d="M172.087 20.3603L174.474 21.0814C174.314 21.7504 174.062 22.3093 173.717 22.758C173.372 23.2067 172.943 23.5452 172.43 23.7736C171.921 24.0019 171.271 24.1161 170.481 24.1161C169.523 24.1161 168.739 23.9779 168.13 23.7015C167.524 23.421 167.001 22.9303 166.56 22.2292C166.119 21.5281 165.898 20.6307 165.898 19.537C165.898 18.0788 166.285 16.959 167.059 16.1778C167.837 15.3926 168.936 15 170.355 15C171.465 15 172.337 15.2243 172.971 15.673C173.608 16.1217 174.082 16.8108 174.39 17.7402L171.985 18.2751C171.9 18.0067 171.812 17.8103 171.72 17.6862C171.568 17.4778 171.381 17.3176 171.161 17.2054C170.94 17.0932 170.694 17.0372 170.421 17.0372C169.804 17.0372 169.33 17.2855 169.002 17.7823C168.753 18.1509 168.629 18.7298 168.629 19.519C168.629 20.4965 168.777 21.1675 169.074 21.5321C169.371 21.8927 169.788 22.0729 170.325 22.0729C170.846 22.0729 171.239 21.9267 171.504 21.6343C171.772 21.3418 171.967 20.9172 172.087 20.3603Z" fill="#EE4A13"/>
<path d="M175.816 15.1502H178.54V18.233H181.517V15.1502H184.253V23.9599H181.517V20.3963H178.54V23.9599H175.816V15.1502Z" fill="#EE4A13"/>
<path d="M186.89 23.2796L185.501 23.0308C185.616 22.5885 185.837 22.2496 186.165 22.0141C186.494 21.7785 186.96 21.6607 187.561 21.6607C188.252 21.6607 188.751 21.7893 189.059 22.0465C189.367 22.3037 189.52 22.627 189.52 23.0164C189.52 23.2448 189.458 23.4515 189.333 23.6366C189.208 23.8216 189.019 23.9839 188.766 24.1233C188.971 24.1738 189.127 24.2327 189.235 24.3C189.411 24.4082 189.547 24.5512 189.643 24.7291C189.742 24.9045 189.791 25.1148 189.791 25.36C189.791 25.6677 189.711 25.9634 189.549 26.247C189.388 26.5282 189.156 26.7458 188.853 26.8996C188.55 27.051 188.152 27.1268 187.659 27.1268C187.177 27.1268 186.797 27.0703 186.518 26.9573C186.242 26.8443 186.013 26.6797 185.833 26.4633C185.655 26.2446 185.518 25.9706 185.421 25.6413L186.89 25.4466C186.948 25.7422 187.037 25.9477 187.157 26.0631C187.28 26.1761 187.435 26.2326 187.622 26.2326C187.82 26.2326 187.983 26.1605 188.113 26.0162C188.245 25.872 188.312 25.6797 188.312 25.4394C188.312 25.1942 188.248 25.0043 188.12 24.8697C187.995 24.7351 187.825 24.6678 187.608 24.6678C187.493 24.6678 187.334 24.6966 187.132 24.7543L187.207 23.7051C187.289 23.7171 187.353 23.7231 187.399 23.7231C187.591 23.7231 187.751 23.6618 187.879 23.5392C188.009 23.4166 188.073 23.2712 188.073 23.1029C188.073 22.9419 188.025 22.8133 187.929 22.7171C187.833 22.621 187.701 22.5729 187.532 22.5729C187.359 22.5729 187.218 22.6258 187.11 22.7316C187.002 22.8349 186.928 23.0176 186.89 23.2796Z" fill="#EE4A13"/>
<path fill-rule="evenodd" clip-rule="evenodd" d="M64.3951 51.6116C63.8587 51.3022 63.1978 51.3022 62.6614 51.6116L35.8669 67.0692C35.3305 67.3786 35 67.9506 35 68.5695V99.4846C35 100.104 35.3305 100.675 35.8669 100.985L62.6614 116.442C63.1978 116.752 63.8587 116.752 64.3951 116.442L91.1896 100.985C91.7261 100.675 92.0565 100.104 92.0565 99.4846V68.5695C92.0565 67.9506 91.7261 67.3786 91.1896 67.0692L64.3951 51.6116ZM64.3951 55.0771C63.8587 54.7677 63.1978 54.7677 62.6614 55.0771L38.8698 68.8023C38.3334 69.1117 38.0029 69.6836 38.0029 70.3026V97.7529C38.0029 98.3718 38.3334 98.9437 38.8698 99.2532L62.6614 112.978C63.1978 113.288 63.8587 113.288 64.3951 112.978L88.1866 99.2532C88.7231 98.9437 89.0535 98.3718 89.0535 97.7529V70.3026C89.0535 69.6837 88.7231 69.1117 88.1866 68.8023L64.3951 55.0771Z" fill="#5181B8"/>
<path d="M40.2013 72.8179C40.2013 71.9807 40.8805 71.3021 41.7184 71.3021C42.5562 71.3021 43.2354 71.9807 43.2354 72.8179V95.7721C43.2354 96.6093 42.5562 97.288 41.7184 97.288C40.8805 97.288 40.2013 96.6093 40.2013 95.7721V72.8179Z" fill="#5181B8"/>
<path d="M113.886 31.2405C113.886 30.4033 114.566 29.7246 115.404 29.7246C116.241 29.7246 116.921 30.4033 116.921 31.2405V52.4623C116.921 53.2995 116.241 53.9781 115.404 53.9781C114.566 53.9781 113.886 53.2995 113.886 52.4623V31.2405Z" fill="#5181B8"/>
<path d="M119.955 31.2405C119.955 30.4033 120.634 29.7246 121.472 29.7246C122.31 29.7246 122.989 30.4033 122.989 31.2405V52.4623C122.989 53.2995 122.31 53.9781 121.472 53.9781C120.634 53.9781 119.955 53.2995 119.955 52.4623V31.2405Z" fill="#5181B8"/>
<path d="M172.835 31.2405C172.835 30.4033 173.514 29.7246 174.352 29.7246C175.189 29.7246 175.869 30.4033 175.869 31.2405V52.4623C175.869 53.2995 175.189 53.9781 174.352 53.9781C173.514 53.9781 172.835 53.2995 172.835 52.4623V31.2405Z" fill="#5181B8"/>
<path d="M83.9488 96.3135C84.6744 95.8949 85.6022 96.1433 86.0211 96.8684C86.44 97.5934 86.1914 98.5204 85.4658 98.939L65.5711 110.416C64.8455 110.835 63.9177 110.586 63.4988 109.861C63.0799 109.136 63.3285 108.209 64.0541 107.791L83.9488 96.3135Z" fill="#5181B8"/>
<path d="M64.0541 60.8265C63.3285 60.4079 63.0799 59.4808 63.4988 58.7558C63.9177 58.0308 64.8456 57.7824 65.5711 58.201L85.4659 69.6781C86.1914 70.0967 86.44 71.0238 86.0211 71.7488C85.6022 72.4738 84.6744 72.7222 83.9488 72.3036L64.0541 60.8265Z" fill="#5181B8"/>
<path d="M119.087 54.3351C119.812 53.9165 120.061 52.9894 119.642 52.2644C119.223 51.5394 118.295 51.291 117.57 51.7096L90.9274 67.0792C90.2018 67.4978 89.9532 68.4249 90.3721 69.1499C90.791 69.8749 91.7188 70.1233 92.4444 69.7048L119.087 54.3351Z" fill="#5181B8"/>
<path d="M174.94 53.8969C175.665 53.4783 175.914 52.5513 175.495 51.8262C175.076 51.1012 174.148 50.8528 173.423 51.2714L155.077 61.855C154.351 62.2736 154.103 63.2007 154.522 63.9257C154.941 64.6507 155.868 64.8991 156.594 64.4805L174.94 53.8969Z" fill="#5181B8"/>
<path d="M117.801 54.3351C117.075 53.9165 116.827 52.9894 117.246 52.2644C117.665 51.5394 118.592 51.291 119.318 51.7096L137.928 62.4455C138.653 62.864 138.902 63.7911 138.483 64.5161C138.064 65.2412 137.136 65.4896 136.411 65.071L117.801 54.3351Z" fill="#5181B8"/>
<path d="M174.148 53.8969C173.423 53.4783 173.174 52.5513 173.593 51.8262C174.012 51.1012 174.94 50.8528 175.665 51.2714L194.275 62.0073C195.001 62.4259 195.249 63.3529 194.831 64.078C194.412 64.803 193.484 65.0514 192.758 64.6328L174.148 53.8969Z" fill="#5181B8"/>
<path d="M110.876 110.546C111.601 110.964 111.85 111.891 111.431 112.616C111.012 113.341 110.084 113.59 109.359 113.171L89.8048 101.891C89.0792 101.472 88.8306 100.545 89.2495 99.8201C89.6685 99.0951 90.5963 98.8467 91.3219 99.2652L110.876 110.546Z" fill="#5181B8"/>
<path d="M137.087 103.746C137.812 103.327 138.74 103.575 139.159 104.3C139.578 105.025 139.33 105.952 138.604 106.371L127.987 112.496C127.261 112.915 126.333 112.666 125.914 111.941C125.496 111.216 125.744 110.289 126.47 109.871L137.087 103.746Z" fill="#5181B8"/>
<path d="M166.251 90.7308C167.063 90.5251 167.888 91.0163 168.094 91.8278C168.3 92.6393 167.808 93.4639 166.996 93.6696L155.112 96.679C154.3 96.8846 153.475 96.3935 153.269 95.582C153.063 94.7704 153.555 93.9459 154.367 93.7402L166.251 90.7308Z" fill="#5181B8"/>
<path d="M161.644 117.964C162.053 118.695 161.792 119.619 161.06 120.027C160.329 120.436 159.405 120.175 158.996 119.444L153.011 108.753C152.602 108.023 152.863 107.099 153.594 106.69C154.325 106.282 155.25 106.543 155.659 107.273L161.644 117.964Z" fill="#5181B8"/>
<path d="M167.985 95.928C168.797 95.7223 169.622 96.2135 169.828 97.025C170.034 97.8365 169.542 98.6611 168.73 98.8668L156.846 101.876C156.034 102.082 155.209 101.591 155.003 100.779C154.797 99.9676 155.288 99.143 156.101 98.9374L167.985 95.928Z" fill="#5181B8"/>
<path d="M157.068 120.983C157.478 121.714 157.216 122.638 156.485 123.046C155.754 123.455 154.83 123.194 154.421 122.463L148.436 111.772C148.027 111.042 148.288 110.118 149.019 109.709C149.75 109.301 150.675 109.562 151.084 110.292L157.068 120.983Z" fill="#5181B8"/>
<path d="M145.094 78.8813C145.094 78.0441 145.773 77.3655 146.611 77.3655C147.449 77.3655 148.128 78.0441 148.128 78.8813V91.1312C148.128 91.9684 147.449 92.6471 146.611 92.6471C145.773 92.6471 145.094 91.9684 145.094 91.1312V78.8813Z" fill="#5181B8"/>
</svg>
