<svg width="245" height="138" viewBox="0 0 245 138" fill="none" xmlns="http://www.w3.org/2000/svg">
<g clip-path="url(#clip0_1363_1547)">
<path d="M43.7653 79.0643C45.529 79.0643 47.2817 79.0754 49.0455 79.0643C49.5856 79.0643 50.0375 79.1422 50.247 79.7208C50.4123 80.2105 50.2249 80.5777 49.6187 80.9895C38.5954 80.9895 27.5722 80.9895 16.5489 80.9895C16.2513 80.8003 15.9647 80.6111 15.8875 80.2216C15.7663 79.565 16.1962 79.0754 16.9347 79.0754C18.7866 79.0643 20.6385 79.0643 22.4905 79.0643C22.6338 78.9641 22.7991 78.9418 22.9645 78.9418C26.3376 78.9641 29.6997 78.8751 33.0617 78.9307C34.6822 78.9085 36.3026 78.9085 37.923 78.9307C39.6757 78.8973 41.4284 78.9196 43.1921 78.9196C43.3905 78.9196 43.5889 78.9307 43.7653 79.0643Z" fill="#785353"/>
<path d="M58.4372 24.3559C56.464 26.014 54.568 27.7612 52.8484 29.6976C49.343 33.6482 46.5541 38.0662 44.3384 42.8625C41.77 48.4268 40.0504 54.2692 38.9701 60.3008C38.7276 61.6696 38.5622 63.0384 38.3638 64.4184C38.2646 64.5742 38.4189 64.7411 38.3638 64.8969C37.7135 65.9207 36.9418 66.8666 36.3466 67.9238C36.2804 68.0462 36.1592 68.2577 35.9828 68.0017C35.7293 66.7442 35.7623 65.4644 35.619 64.1958C35.2002 60.6236 34.4175 57.1292 33.3482 53.7017C33.2601 53.4346 33.1719 53.1786 33.1719 52.8893C33.2931 50.6636 33.7561 48.4935 34.3403 46.3569C34.8254 44.5652 35.5308 42.8625 36.3025 41.1821C36.3907 41.0041 36.4568 40.8038 36.6552 40.7036C37.0521 40.0359 37.4379 39.3682 37.8457 38.7116C41.285 33.0695 46.1793 29.13 52.0657 26.359C53.8625 25.5133 55.7254 24.8233 57.6435 24.3225C57.8199 24.278 57.9962 24.2557 58.1836 24.2112C58.3049 24.1778 58.4372 24.1333 58.4372 24.3559Z" fill="#79C800"/>
<path d="M33.2903 52.8232C33.4005 53.7468 33.7643 54.5926 34.0178 55.4829C34.7454 58.0535 35.2855 60.6465 35.6382 63.3062C35.8477 64.8975 35.9469 66.4889 36.0571 68.0803C36.2115 68.2917 36.0792 68.4698 35.991 68.6478C34.4918 71.519 33.632 74.5682 33.3344 77.7954C33.3234 77.9735 33.3234 78.1738 33.1029 78.2517C32.8273 78.2072 32.8494 77.9735 32.8273 77.7732C32.4856 73.166 31.2069 68.837 29.1566 64.7195C28.8149 64.0295 28.3409 63.4063 28.1094 62.6496C28.1204 62.4159 28.2527 62.1822 28.1314 61.9485C27.4039 51.6324 24.6481 41.9618 19.0703 33.1035C19.5994 33.315 19.9191 33.6711 20.2718 33.9715C23.7331 36.8983 26.6543 40.2925 29.0574 44.1541C29.1345 44.2765 29.2337 44.3878 29.3219 44.4991C29.8951 45.0889 30.2038 45.8456 30.5896 46.5467C31.4935 48.2382 32.2872 49.9854 32.9596 51.7771C33.0919 52.1221 33.136 52.4893 33.2903 52.8232Z" fill="#79C800"/>
<path d="M28.2192 62.6271C28.4507 63.2503 28.8365 63.7956 29.1452 64.3854C30.7436 67.5013 31.89 70.7842 32.5183 74.2452C32.7388 75.4582 32.9592 76.6712 32.9703 77.9176C32.9703 78.0289 32.9813 78.1402 33.0805 78.2181C33.2899 78.5074 33.2899 78.7856 33.0805 79.0749C29.5531 79.1083 26.0256 79.1306 22.4982 79.0749C22.4982 79.0416 22.5092 79.0193 22.5312 78.997C22.7407 78.7967 23.0163 78.8412 23.2588 78.8412C24.6146 78.8412 25.9705 78.8412 27.3264 78.8412C27.8996 78.8412 27.9437 78.7856 27.7783 78.2403C27.2382 76.4152 26.4225 74.7348 25.1878 73.277C25.0556 73.1212 24.9123 72.9765 24.9233 72.754C24.769 71.0179 24.3942 69.3264 23.9532 67.646C22.6525 62.6716 20.5471 58.12 17.2952 54.1583C16.1708 52.7895 14.9142 51.5431 13.4922 50.4414C14.7268 50.497 19.1912 52.9564 21.7376 55.1487C24.1847 57.252 26.3232 59.6335 27.9988 62.4045C28.109 62.449 28.1531 62.5492 28.2192 62.6271Z" fill="#79C800"/>
<path d="M33.2932 52.8231C32.8523 52.289 32.7641 51.5879 32.5105 50.9758C31.6287 48.8058 30.6035 46.7136 29.402 44.6994C29.3689 44.6437 29.3579 44.5658 29.3358 44.4879C29.9201 42.763 30.2067 40.9713 30.3279 39.1574C30.6807 34.1607 29.898 29.3087 28.465 24.5346C28.4319 24.4122 28.4099 24.2897 28.3438 24.0449C32.8964 28.7745 35.6742 34.2609 36.6222 40.6708C35.9829 42.2066 35.2663 43.6978 34.7703 45.2892C34.0207 47.7597 33.4696 50.2525 33.2932 52.8231Z" fill="#79C800"/>
<path d="M24.8873 72.7437C26.3864 74.3351 27.3234 76.238 27.9407 78.3191C28.1391 78.9868 28.1391 78.9868 27.4667 78.9979C25.8132 78.9979 24.1597 78.9979 22.5063 78.9979C22.3189 75.9042 21.3819 73.1109 19.2985 70.7628C18.9237 70.3511 18.5048 70.0061 18.0859 69.6388C18.119 69.3718 18.2954 69.5164 18.4166 69.5276C20.6433 69.8058 22.6055 70.6738 24.281 72.1761C24.4904 72.3542 24.6889 72.5434 24.8873 72.7437Z" fill="#79C800"/>
<path d="M28.2205 62.6281C28.1102 62.5947 28.0331 62.5168 28 62.4055C28.1874 62.2942 28.0551 62.0939 28.1213 61.9492C28.2756 62.1607 28.1984 62.4055 28.2205 62.6281Z" fill="#79C800"/>
<path d="M33.0703 79.0645C33.0703 78.7751 33.0703 78.4969 33.0703 78.2076C33.3128 77.807 33.2026 77.3396 33.2577 76.9167C33.5333 74.6687 34.1175 72.5098 34.9663 70.4288C35.286 69.6275 35.6828 68.8597 36.0466 68.0807C36.7411 66.9678 37.4465 65.8772 38.2512 64.8423C38.3174 64.7644 38.3725 64.6754 38.4717 64.6197C41.5472 61.0586 45.2951 58.5213 49.8036 57.1191C49.3957 57.4864 48.9769 57.8314 48.591 58.2097C45.9896 60.7359 44.3471 63.8407 43.1125 67.2127C42.6054 68.5815 42.2306 69.9948 41.8779 71.4081C41.8889 71.6195 41.8007 71.7865 41.6464 71.9423C39.7945 73.7339 38.6371 75.904 38.1851 78.4635C38.152 78.6861 38.119 78.9087 37.9316 79.0645C36.3111 79.0645 34.6907 79.0645 33.0703 79.0645Z" fill="#79C800"/>
<path d="M37.9219 79.064C38.2415 76.983 38.925 75.0578 40.2037 73.3774C40.6005 72.8543 41.0084 72.3202 41.5044 71.8861C41.6588 71.7526 41.769 71.5968 41.8682 71.4299C42.0556 71.5523 42.1217 71.352 42.2209 71.2852C44.4035 69.6048 46.9058 68.8147 49.5955 68.5253C49.7167 68.5142 49.8711 68.3695 49.9041 68.6255C48.3058 69.4156 47.0932 70.6398 46.1452 72.1198C44.7783 74.2343 43.9957 76.5712 43.7642 79.0751C41.8131 79.064 39.873 79.064 37.9219 79.064Z" fill="#79C800"/>
</g>
<g clip-path="url(#clip1_1363_1547)">
<path d="M160.016 62.6578C160.016 62.6063 160.016 62.5376 160.016 62.486C160.285 61.5072 160.302 60.4768 161.11 59.6353C162.643 58.0381 164.883 57.6947 166.702 58.4846C169.615 59.7726 171.182 58.4503 172.714 57.0764C173.118 56.7158 173.101 56.2177 173.085 55.7197C172.984 53.1437 173.405 50.6536 174.297 48.2321C174.971 46.4289 173.893 44.7802 172.007 44.6944C170.777 44.6429 169.716 44.265 168.857 43.3033C167.443 41.7234 167.628 39.2848 169.312 37.9109C170.912 36.6057 173.421 36.9492 174.55 38.5978C174.786 38.9585 174.971 39.3363 175.139 39.7313C175.476 40.5212 176.032 41.1223 176.773 41.5173C177.632 41.981 178.457 42.0325 179.265 41.3284C180.242 40.4697 181.354 39.7656 182.499 39.1817C183.139 38.8554 183.476 38.3746 183.577 37.6533C183.88 35.5753 183.493 33.8408 181.691 32.5184C179.535 30.9728 179.383 27.7786 181.084 25.7006C182.095 24.4813 183.375 24.2065 184.773 24.0176C184.941 24.0176 185.109 24.0176 185.278 24.0176C185.615 24.1893 186.002 24.155 186.339 24.155C188.242 24.2408 189.354 25.4086 190.044 27.0229C190.735 28.6544 190.583 30.3031 189.455 31.7113C188.225 33.2397 187.872 34.4762 189.589 36.7946C189.943 37.2755 190.415 37.4644 190.97 37.4644C193.48 37.4644 195.77 38.2543 197.976 39.3706C198.566 39.6797 199.105 39.6626 199.661 39.3363C200.503 38.8554 201.277 38.3059 202.002 37.6533C202.608 37.1209 202.827 36.4168 202.928 35.6096C203.248 32.9649 205.774 31.4022 208.048 32.4497C209.429 33.0851 210.254 34.1842 210.288 35.7814C210.338 37.43 209.597 38.718 208.149 39.2504C206.145 39.9717 205.151 41.5345 204.258 43.269C203.888 43.9731 203.888 44.6085 204.343 45.2783C205.151 46.4632 205.656 47.8028 206.178 49.1251C206.616 50.2414 207.273 50.6707 208.435 50.6536C209.765 50.6192 210.827 50.104 211.652 48.9362C212.965 47.0643 215.29 46.2915 217.31 46.9097C219.651 47.631 220.881 49.2969 220.915 51.8385C220.915 52.1992 220.915 52.5598 220.915 52.9033C220.965 55.153 219.938 56.6986 217.934 57.5058C215.812 58.3644 213.858 58.0381 212.208 56.3551C210.405 54.5004 209.193 55.1015 207.492 55.8914C207.138 56.0632 206.987 56.4067 206.936 56.8016C206.751 58.1927 206.397 59.5494 205.942 60.8717C205.622 61.8335 205.808 62.3487 206.633 62.9326C207.475 63.5336 208.418 63.7054 209.412 63.7397C211.433 63.7912 212.999 65.4742 212.999 67.5179C212.999 69.1665 211.955 70.5919 210.372 71.1071C208.907 71.588 207.172 71.0041 206.313 69.613C205.656 68.5483 205.05 67.4663 204.006 66.7107C203.197 66.1096 202.945 66.0925 202.22 66.8137C201.109 67.9128 199.93 68.9261 198.566 69.6817C197.791 70.111 197.454 70.7465 197.37 71.6051C197.168 73.7518 197.724 75.6237 199.341 77.1006C200.519 78.1654 201.126 79.4534 201.075 81.102C201.025 82.6648 199.745 84.8802 197.606 84.8458C197.488 84.8458 197.387 84.8458 197.286 84.9317C196.781 84.9317 196.275 84.9317 195.77 84.9317C192.638 84.2104 191.425 81.892 192.587 78.7664C193.396 76.5854 192.924 74.559 191.93 72.5668C191.711 72.1375 191.324 71.9658 190.886 71.9829C189.455 72.0001 188.023 71.9314 186.625 71.6395C186.053 71.5193 185.598 71.8112 185.194 72.2062C183.51 73.8377 182.785 75.8985 182.566 78.1826C182.516 78.7493 182.449 79.316 182.331 79.8827C181.977 81.5829 180.141 82.9396 178.524 82.7335C176.655 82.5103 175.24 80.9475 175.173 79.1443C175.122 77.6674 175.729 76.5854 176.874 75.7268C178.929 74.1983 179.838 72.0688 179.889 69.5271C179.905 68.8917 179.67 68.3765 179.181 67.9472C177.868 66.8137 176.756 65.4914 175.83 64.0145C175.375 63.2932 174.819 62.9841 173.994 63.1902C173.725 63.2588 173.438 63.2589 173.152 63.2417C171.266 63.1215 169.935 63.9458 169.043 65.6288C168.302 67.0198 167.089 67.7926 165.573 68.1018C162.727 68.6685 160.251 66.6592 160.184 63.7054C160.066 63.3619 160.201 63.0012 160.016 62.6578Z" fill="#F6BD57"/>
<path d="M182.684 46.5138C184.469 46.531 185.799 47.9049 185.783 49.7424C185.783 51.5285 184.317 53.0397 182.583 53.0397C180.882 53.0397 179.4 51.5285 179.383 49.8111C179.383 48.0079 180.882 46.4966 182.684 46.5138Z" fill="#F4A34E"/>
<path d="M198.597 50.4824C199.877 50.4824 201.056 51.7017 201.072 53.0241C201.089 54.3808 199.86 55.6173 198.546 55.6001C197.249 55.5658 196.087 54.3808 196.07 53.0584C196.054 51.7189 197.266 50.4824 198.597 50.4824Z" fill="#F4A34E"/>
<path d="M188.479 57.7454C188.479 58.896 187.57 59.8234 186.458 59.8234C185.346 59.8234 184.336 58.8101 184.336 57.6939C184.336 56.5604 185.313 55.6159 186.492 55.633C187.553 55.633 188.462 56.5948 188.479 57.7454Z" fill="#F4A34E"/>
<path d="M193.649 46.034C193.632 46.9786 192.773 47.8029 191.83 47.8029C190.887 47.8029 190.062 46.9442 190.078 45.9825C190.095 45.0208 190.92 44.1621 191.847 44.1621C192.84 44.1621 193.682 45.038 193.649 46.034Z" fill="#F4A34E"/>
<path d="M193.045 66.2634C192.017 66.2634 191.344 65.5593 191.344 64.4773C191.344 63.4126 192.102 62.6569 193.146 62.6741C194.055 62.6913 194.83 63.5156 194.847 64.443C194.88 65.4219 194.038 66.2634 193.045 66.2634Z" fill="#F4A34E"/>
<path d="M201.311 28.5681C201.311 29.9248 200.233 31.0411 198.919 31.0068C197.639 30.9724 196.578 29.8905 196.578 28.5853C196.578 27.2458 197.69 26.1295 198.986 26.1467C200.283 26.1639 201.311 27.2458 201.311 28.5681Z" fill="#F6BD57"/>
<path d="M169.493 32.2433C167.523 32.2262 165.906 30.5775 165.906 28.5682C165.906 26.5589 167.54 24.8931 169.493 24.9103C171.447 24.9103 173.081 26.5761 173.098 28.5854C173.114 30.5603 171.447 32.2605 169.493 32.2433Z" fill="#F6BD57"/>
<path d="M166.211 75.2636C166.211 73.9069 167.289 72.7906 168.602 72.825C169.882 72.8422 170.943 73.9413 170.96 75.2464C170.977 76.6031 169.882 77.6851 168.552 77.6679C167.221 77.6507 166.211 76.6031 166.211 75.2636Z" fill="#F6BD57"/>
<path d="M210.691 82.5953C208.771 82.5953 207.289 81.0669 207.289 79.1091C207.306 77.1513 208.805 75.6401 210.725 75.6744C212.611 75.6916 214.076 77.2028 214.076 79.1263C214.11 81.0669 212.611 82.5953 210.691 82.5953Z" fill="#F6BD57"/>
</g>
<g clip-path="url(#clip2_1363_1547)">
<path d="M106.404 82.8534C107.505 81.0766 108.9 79.5941 110.677 78.4931C111.08 78.2424 111.026 78.0353 110.797 77.6974C108.954 75.0921 108.813 72.3343 110.175 69.4892C110.262 69.3148 110.448 69.1295 110.262 68.9442C109.826 68.5081 109.903 67.9522 109.903 67.429C109.903 65.4014 109.914 63.363 109.903 61.3464C109.892 59.962 109.14 58.9265 107.919 58.534C106.502 58.0762 104.932 58.4904 104.147 59.5369C103.482 60.4199 103.362 61.3682 103.787 62.3602C104.234 63.3739 105.03 63.9735 106.153 64.0716C106.513 64.1043 106.872 64.0716 107.232 64.1043C107.995 64.1479 108.518 64.6929 108.497 65.3687C108.475 66.0446 107.984 66.5133 107.243 66.5569C104.987 66.6986 103.057 66.0773 101.814 64.0716C100.594 62.1531 100.681 60.1909 101.88 58.2724C101.902 58.2288 101.891 58.1743 101.902 58.1198C102.305 57.7165 102.697 57.3241 103.101 56.9207C104.354 56.1468 105.717 55.8525 107.199 55.9397C110.066 56.1032 112.225 58.1961 112.344 61.063C112.41 62.6763 112.377 64.3005 112.366 65.9247C112.366 66.2081 112.29 66.4806 112.214 66.9711C115.495 64.8673 118.558 64.8346 121.621 66.8294C121.828 66.6005 121.719 66.3389 121.73 66.0882C121.752 64.3223 121.665 62.5346 121.795 60.7687C122.024 57.4876 125.087 55.4055 128.597 56.0378C131.65 56.5828 133.601 59.6241 132.816 62.6109C132.129 65.2815 129.404 67.0256 126.668 66.5569C125.992 66.4479 125.611 66.0228 125.611 65.3469C125.611 64.6711 126.014 64.246 126.679 64.1479C127.06 64.0934 127.453 64.137 127.834 64.1043C129.371 63.9844 130.516 62.7526 130.516 61.2483C130.516 59.7658 129.35 58.534 127.813 58.4141C125.458 58.2397 124.204 59.4061 124.193 61.7933C124.193 63.6682 124.193 65.5432 124.193 67.4181C124.183 67.9522 124.27 68.4972 123.823 68.9442C123.627 69.1404 123.823 69.3148 123.91 69.4892C125.284 72.3452 125.153 75.0921 123.311 77.6974C123.082 78.0135 122.994 78.2315 123.42 78.4822C125.185 79.5941 126.581 81.0766 127.693 82.8425C127.562 83.1259 127.278 83.1259 127.039 83.1477C125.131 83.4202 123.463 84.1942 122.166 85.6439C122.035 85.7966 121.872 85.9383 121.697 86.0255C119.539 86.3525 117.359 86.4179 115.19 86.298C114.274 86.2544 113.336 86.2762 112.443 86.0364C112.17 85.8947 111.952 85.6548 111.745 85.4477C110.535 84.1506 109.02 83.4856 107.308 83.1913C106.981 83.1477 106.622 83.2022 106.404 82.8534Z" fill="#9A7863"/>
<path d="M124.6 100.697C125.232 101.111 125.854 101.515 126.497 101.918C126.432 103.749 125.461 105.156 124.35 106.486C122.366 108.862 120 110.813 117.526 112.655C117.264 112.851 116.992 112.971 116.697 112.742C113.667 110.453 110.702 108.099 108.587 104.872C107.999 103.978 107.639 103.008 107.617 101.918C108.238 101.515 108.849 101.122 109.481 100.73C109.808 100.708 110.07 100.861 110.342 101.002C114.888 103.521 119.422 103.477 123.935 100.904C124.131 100.795 124.306 100.556 124.6 100.697Z" fill="#785353"/>
<path d="M121.509 85.9699C120.692 87.3543 120.049 88.8041 119.885 90.4501C119.776 91.5184 119.994 92.5212 120.103 93.5677C119.286 94.4942 118.174 94.734 117.051 94.7231C115.928 94.734 114.805 94.4833 113.999 93.5677C114.609 90.8425 114.064 88.3136 112.582 85.9808C115.558 86.2315 118.533 86.2424 121.509 85.9699Z" fill="#785353"/>
<path d="M113.986 93.5565C114.717 93.9162 115.404 94.3414 116.232 94.4722C117.649 94.712 118.892 94.2542 120.091 93.5565C120.636 95.3006 121.312 96.9575 122.445 98.4182C123.089 99.2575 123.917 99.9116 124.593 100.696C119.557 103.879 114.51 103.847 109.452 100.729C110.749 99.4102 112.079 98.1021 112.896 96.3907C113.354 95.475 113.627 94.5049 113.986 93.5565Z" fill="#9A7863"/>
<path d="M96.7518 101.623C96.4248 101.296 96.0978 100.969 95.7708 100.642C93.9286 98.4072 93.5144 95.8347 94.0921 93.055C95.084 88.1824 99.1282 84.0511 104.11 83.1245C104.938 82.9719 105.834 82.6677 106.662 82.5805C106.662 82.5805 114.543 80.3111 116.189 82.1751C116.854 82.6439 115.48 88.2562 115.48 88.2562C115.48 88.2562 114.858 91.7361 114.345 93.7091C113.626 96.6086 112.056 98.9632 109.789 100.86C109.095 101.331 107.816 101.939 107.816 101.939C105.887 102.975 103.848 103.552 101.624 103.443C99.7931 103.334 98.1689 102.778 96.7518 101.623Z" fill="#C8D4E4"/>
<path d="M137.764 101.623C138.091 101.296 138.418 100.969 138.745 100.642C140.587 98.4072 141.001 95.8347 140.424 93.055C139.432 88.1824 135.387 84.0511 130.406 83.1245C129.577 82.9719 128.682 82.6677 127.853 82.5805C127.853 82.5805 119.972 80.3111 118.326 82.1751C117.661 82.6439 119.036 88.2562 119.036 88.2562C119.036 88.2562 119.658 91.7361 120.17 93.7091C120.89 96.6086 122.459 98.9632 124.727 100.86C125.421 101.331 126.7 101.939 126.7 101.939C128.629 102.975 130.667 103.552 132.891 103.443C134.722 103.334 136.347 102.778 137.764 101.623Z" fill="#C8D4E4"/>
</g>
<defs>
<clipPath id="clip0_1363_1547">
<rect width="46" height="57" fill="white" transform="translate(13 24)"/>
</clipPath>
<clipPath id="clip1_1363_1547">
<rect width="61" height="61" fill="white" transform="translate(160 24)"/>
</clipPath>
<clipPath id="clip2_1363_1547">
<rect width="60" height="60" fill="white" transform="translate(87 54)"/>
</clipPath>
</defs>
</svg>
