<svg width="245" height="138" viewBox="0 0 245 138" fill="none" xmlns="http://www.w3.org/2000/svg">
<g clip-path="url(#clip0_1363_1580)">
<g clip-path="url(#clip1_1363_1580)">
<path d="M64.8727 97.1193C65.7168 95.7571 66.7865 94.6205 68.1487 93.7764C68.458 93.5842 68.4162 93.4254 68.2407 93.1664C66.8283 91.169 66.7197 89.0546 67.7643 86.8734C67.8312 86.7397 67.9732 86.5976 67.8312 86.4556C67.4969 86.1213 67.5554 85.6951 67.5554 85.2939C67.5554 83.7395 67.5637 82.1767 67.5554 80.6306C67.547 79.5693 66.9704 78.7753 66.0344 78.4745C64.948 78.1235 63.7445 78.441 63.1428 79.2433C62.633 79.9203 62.5411 80.6473 62.867 81.4078C63.2097 82.185 63.8197 82.6447 64.6805 82.7199C64.9563 82.745 65.2321 82.7199 65.5079 82.745C66.0929 82.7784 66.494 83.1963 66.4773 83.7144C66.4606 84.2326 66.0845 84.5919 65.5162 84.6253C63.7863 84.734 62.3071 84.2576 61.3544 82.7199C60.4184 81.249 60.4852 79.7448 61.4045 78.2739C61.4212 78.2405 61.4129 78.1987 61.4212 78.1569C61.7304 77.8477 62.0313 77.5468 62.3405 77.2376C63.3016 76.6442 64.3462 76.4186 65.4828 76.4855C67.6807 76.6108 69.3355 78.2154 69.4274 80.4133C69.4775 81.6502 69.4525 82.8954 69.4441 84.1406C69.4441 84.3579 69.3856 84.5668 69.3271 84.9429C71.8426 83.33 74.191 83.3049 76.5393 84.8343C76.6981 84.6588 76.6146 84.4582 76.6229 84.266C76.6396 82.9121 76.5728 81.5415 76.6731 80.1877C76.8486 77.6722 79.1969 76.076 81.8879 76.5607C84.2279 76.9785 85.7239 79.3102 85.1221 81.6C84.5956 83.6476 82.5064 84.9847 80.4087 84.6253C79.8906 84.5418 79.5981 84.2158 79.5981 83.6977C79.5981 83.1795 79.9073 82.8536 80.4171 82.7784C80.7096 82.7366 81.0104 82.77 81.3029 82.745C82.4813 82.653 83.3588 81.7087 83.3588 80.5554C83.3588 79.4188 82.4646 78.4745 81.2862 78.3825C79.4811 78.2488 78.52 79.143 78.5116 80.9733C78.5116 82.4107 78.5116 83.8481 78.5116 85.2856C78.5033 85.6951 78.5701 86.1129 78.2275 86.4556C78.0771 86.606 78.2275 86.7397 78.2943 86.8734C79.3473 89.063 79.2471 91.169 77.8347 93.1664C77.6592 93.4087 77.5923 93.5759 77.9183 93.7681C79.2721 94.6205 80.3418 95.7571 81.1943 97.1109C81.094 97.3282 80.8767 97.3282 80.6928 97.3449C79.2303 97.5539 77.9517 98.1472 76.9572 99.2587C76.8569 99.3757 76.7316 99.4844 76.5978 99.5512C74.9431 99.8019 73.2717 99.8521 71.6086 99.7602C70.9066 99.7267 70.1879 99.7434 69.5026 99.5596C69.2937 99.4509 69.1265 99.2671 68.9677 99.1083C68.0401 98.1138 66.8785 97.604 65.5664 97.3784C65.3157 97.3449 65.0399 97.3867 64.8727 97.1193Z" fill="#9A7863"/>
<path d="M78.8271 110.8C79.3118 111.118 79.7882 111.427 80.2812 111.736C80.2311 113.14 79.4873 114.218 78.6349 115.238C77.1139 117.06 75.3004 118.556 73.4033 119.968C73.2027 120.119 72.9938 120.21 72.7682 120.035C70.4449 118.28 68.1717 116.475 66.5504 114.001C66.0991 113.316 65.8233 112.572 65.8066 111.736C66.283 111.427 66.751 111.126 67.2357 110.825C67.4864 110.809 67.687 110.926 67.8959 111.034C71.3809 112.965 74.8574 112.931 78.3173 110.959C78.4677 110.876 78.6015 110.692 78.8271 110.8Z" fill="#785353"/>
<path d="M76.4553 99.5098C75.8285 100.571 75.3355 101.683 75.2101 102.945C75.1265 103.764 75.2937 104.532 75.3772 105.335C74.7505 106.045 73.898 106.229 73.0372 106.221C72.1764 106.229 71.3157 106.037 70.6972 105.335C71.1652 103.245 70.7474 101.307 69.6108 99.5181C71.8923 99.7103 74.1738 99.7187 76.4553 99.5098Z" fill="#785353"/>
<path d="M70.6909 105.327C71.2509 105.602 71.7774 105.928 72.4125 106.029C73.4989 106.213 74.4516 105.862 75.3709 105.327C75.7888 106.664 76.3069 107.934 77.1761 109.054C77.6692 109.697 78.3043 110.199 78.8224 110.801C74.9614 113.241 71.0921 113.216 67.2143 110.826C68.2088 109.814 69.2284 108.812 69.8552 107.5C70.2062 106.798 70.4151 106.054 70.6909 105.327Z" fill="#9A7863"/>
<path d="M57.4749 111.512C57.2241 111.261 56.9734 111.011 56.7227 110.76C55.3103 109.047 54.9928 107.074 55.4357 104.943C56.1962 101.208 59.2967 98.0402 63.1159 97.3299C63.7511 97.2129 64.4376 96.9796 65.0728 96.9128C65.0728 96.9128 71.1149 95.1729 72.3768 96.602C72.8866 96.9613 71.8329 101.264 71.8329 101.264C71.8329 101.264 71.3561 103.932 70.9633 105.445C70.4117 107.668 69.2083 109.473 67.47 110.927C66.9376 111.288 65.9574 111.754 65.9574 111.754C64.4782 112.548 62.9154 112.991 61.2105 112.908C59.8065 112.824 58.5613 112.398 57.4749 111.512Z" fill="#C8D4E4"/>
<path d="M88.9158 111.512C89.1665 111.261 89.4172 111.011 89.6679 110.76C91.0803 109.047 91.3978 107.074 90.9549 104.943C90.1944 101.208 87.0939 98.0402 83.2747 97.3299C82.6395 97.2129 81.953 96.9796 81.3178 96.9128C81.3178 96.9128 75.2757 95.1729 74.0138 96.602C73.504 96.9613 74.5577 101.264 74.5577 101.264C74.5577 101.264 75.0345 103.932 75.4273 105.445C75.9789 107.668 77.1823 109.473 78.9206 110.927C79.453 111.288 80.4333 111.754 80.4333 111.754C81.9125 112.548 83.4753 112.991 85.1801 112.908C86.5841 112.824 87.8293 112.398 88.9158 111.512Z" fill="#C8D4E4"/>
</g>
<g clip-path="url(#clip2_1363_1580)">
<path d="M73 79C62.5236 79 54 87.523 54 98C54 108.477 62.523 117 73 117C83.477 117 92 108.477 92 98C92 87.523 83.4764 79 73 79ZM57.48 98C57.48 89.4422 64.4422 82.48 73 82.48C76.8558 82.48 80.3856 83.8969 83.1029 86.2337L61.2337 108.103C58.8969 105.386 57.48 101.856 57.48 98ZM73 113.52C69.5502 113.52 66.3608 112.387 63.781 110.476L85.4757 88.7816C87.3867 91.3614 88.5195 94.5508 88.5195 98.0006C88.52 106.558 81.5578 113.52 73 113.52Z" fill="#C73838"/>
</g>
<path d="M94.0156 57.7856C94.0156 57.7459 94.0156 57.693 94.0156 57.6533C94.2232 56.8991 94.2362 56.1052 94.8591 55.4568C96.0399 54.2262 97.7658 53.9616 99.1672 54.5703C101.412 55.5627 102.619 54.5438 103.8 53.4852C104.111 53.2074 104.098 52.8236 104.085 52.4399C104.007 50.4551 104.332 48.5365 105.019 46.6708C105.539 45.2814 104.708 44.0111 103.255 43.945C102.307 43.9053 101.49 43.6142 100.828 42.8732C99.7382 41.6558 99.8809 39.7769 101.179 38.7183C102.411 37.7127 104.345 37.9774 105.214 39.2476C105.396 39.5255 105.539 39.8166 105.668 40.1209C105.928 40.7296 106.356 41.1927 106.927 41.4971C107.589 41.8543 108.225 41.894 108.847 41.3515C109.6 40.6899 110.457 40.1474 111.339 39.6975C111.832 39.4461 112.092 39.0756 112.169 38.5199C112.403 36.9188 112.105 35.5824 110.716 34.5635C109.055 33.3726 108.938 30.9115 110.249 29.3104C111.027 28.3709 112.014 28.1592 113.091 28.0137C113.22 28.0137 113.35 28.0137 113.48 28.0137C113.74 28.146 114.038 28.1195 114.298 28.1195C115.764 28.1857 116.62 29.0855 117.152 30.3293C117.684 31.5863 117.568 32.8566 116.698 33.9416C115.751 35.1192 115.478 36.0719 116.802 37.8583C117.074 38.2288 117.438 38.3743 117.866 38.3743C119.799 38.3743 121.564 38.983 123.264 39.8431C123.718 40.0812 124.134 40.068 124.562 39.8166C125.211 39.4461 125.807 39.0227 126.365 38.5199C126.833 38.1097 127.001 37.5672 127.079 36.9453C127.326 34.9075 129.272 33.7034 131.024 34.5106C132.088 35.0002 132.724 35.847 132.75 37.0776C132.789 38.3478 132.218 39.3402 131.102 39.7504C129.558 40.3062 128.792 41.5103 128.104 42.8467C127.819 43.3892 127.819 43.8788 128.169 44.3949C128.792 45.3079 129.181 46.34 129.584 47.3588C129.921 48.2189 130.427 48.5497 131.322 48.5365C132.347 48.51 133.165 48.1131 133.801 47.2133C134.813 45.771 136.604 45.1755 138.161 45.6519C139.965 46.2076 140.912 47.4911 140.938 49.4495C140.938 49.7274 140.938 50.0052 140.938 50.2699C140.977 52.0033 140.185 53.1941 138.641 53.816C137.006 54.4776 135.501 54.2262 134.229 52.9295C132.841 51.5004 131.906 51.9636 130.596 52.5722C130.323 52.7045 130.206 52.9692 130.167 53.2735C130.025 54.3453 129.752 55.3906 129.402 56.4095C129.155 57.1505 129.298 57.5475 129.934 57.9973C130.583 58.4605 131.309 58.5928 132.075 58.6192C133.632 58.6589 134.839 59.9557 134.839 61.5303C134.839 62.8005 134.034 63.8988 132.815 64.2958C131.686 64.6663 130.349 64.2164 129.687 63.1446C129.181 62.3242 128.714 61.4906 127.91 60.9084C127.287 60.4453 127.092 60.432 126.534 60.9878C125.678 61.8346 124.769 62.6153 123.718 63.1975C123.121 63.5283 122.862 64.0179 122.797 64.6795C122.641 66.3335 123.069 67.7758 124.315 68.9137C125.224 69.7341 125.691 70.7265 125.652 71.9968C125.613 73.2009 124.627 74.9078 122.979 74.8813C122.888 74.8813 122.81 74.8813 122.732 74.9475C122.343 74.9475 121.954 74.9475 121.564 74.9475C119.151 74.3918 118.216 72.6054 119.112 70.1972C119.735 68.5168 119.371 66.9554 118.606 65.4205C118.437 65.0897 118.138 64.9574 117.801 64.9706C116.698 64.9838 115.595 64.9309 114.518 64.706C114.077 64.6133 113.727 64.8383 113.415 65.1426C112.118 66.3997 111.56 67.9875 111.391 69.7473C111.352 70.184 111.3 70.6206 111.209 71.0573C110.937 72.3673 109.522 73.4126 108.277 73.2538C106.836 73.0818 105.746 71.8777 105.694 70.4883C105.655 69.3504 106.122 68.5168 107.005 67.8552C108.588 66.6775 109.289 65.0368 109.328 63.0784C109.341 62.5888 109.159 62.1919 108.783 61.8611C107.77 60.9878 106.914 59.9689 106.2 58.831C105.85 58.2752 105.422 58.037 104.786 58.1958C104.578 58.2487 104.358 58.2487 104.137 58.2355C102.684 58.1429 101.659 58.778 100.971 60.0748C100.4 61.1465 99.4657 61.742 98.2978 61.9802C96.1048 62.4168 94.1973 60.8687 94.1454 58.5928C94.0546 58.3281 94.1584 58.0503 94.0156 57.7856Z" fill="#F6BD57"/>
<path d="M111.481 45.3478C112.856 45.361 113.881 46.4196 113.868 47.8354C113.868 49.2115 112.74 50.3759 111.403 50.3759C110.092 50.3759 108.95 49.2115 108.938 47.8883C108.938 46.4989 110.092 45.3345 111.481 45.3478Z" fill="#F4A34E"/>
<path d="M123.743 48.4043C124.73 48.4043 125.638 49.3438 125.651 50.3626C125.664 51.408 124.717 52.3607 123.705 52.3474C122.705 52.321 121.81 51.408 121.797 50.3891C121.784 49.357 122.718 48.4043 123.743 48.4043Z" fill="#F4A34E"/>
<path d="M115.942 54.0008C115.942 54.8873 115.241 55.6018 114.385 55.6018C113.529 55.6018 112.75 54.8211 112.75 53.9611C112.75 53.0878 113.503 52.36 114.411 52.3732C115.228 52.3732 115.929 53.1142 115.942 54.0008Z" fill="#F4A34E"/>
<path d="M119.931 44.9774C119.918 45.7052 119.256 46.3403 118.529 46.3403C117.803 46.3403 117.167 45.6787 117.18 44.9377C117.193 44.1968 117.829 43.5352 118.542 43.5352C119.308 43.5352 119.957 44.21 119.931 44.9774Z" fill="#F4A34E"/>
<path d="M119.459 60.5645C118.667 60.5645 118.148 60.022 118.148 59.1884C118.148 58.368 118.732 57.7858 119.537 57.799C120.238 57.8123 120.835 58.4474 120.847 59.1619C120.873 59.9162 120.225 60.5645 119.459 60.5645Z" fill="#F4A34E"/>
<path d="M125.834 31.5202C125.834 32.5655 125.003 33.4256 123.991 33.3991C123.005 33.3726 122.188 32.539 122.188 31.5334C122.188 30.5013 123.044 29.6412 124.043 29.6544C125.042 29.6677 125.834 30.5013 125.834 31.5202Z" fill="#F6BD57"/>
<path d="M101.319 34.3513C99.8004 34.3381 98.5547 33.0678 98.5547 31.5197C98.5547 29.9715 99.8134 28.688 101.319 28.7013C102.824 28.7013 104.083 29.9848 104.096 31.5329C104.109 33.0546 102.824 34.3646 101.319 34.3513Z" fill="#F6BD57"/>
<path d="M98.7891 67.4987C98.7891 66.4534 99.6195 65.5933 100.632 65.6197C101.618 65.633 102.435 66.4798 102.448 67.4854C102.461 68.5308 101.618 69.3644 100.593 69.3512C99.5676 69.3379 98.7891 68.5308 98.7891 67.4987Z" fill="#F6BD57"/>
<path d="M133.059 73.1474C131.579 73.1474 130.438 71.9697 130.438 70.4613C130.45 68.9528 131.605 67.7884 133.085 67.8149C134.538 67.8281 135.667 68.9925 135.667 70.4745C135.693 71.9697 134.538 73.1474 133.059 73.1474Z" fill="#F6BD57"/>
<g clip-path="url(#clip3_1363_1580)">
<path d="M116.729 31.8516C106.32 31.8516 97.8516 40.3194 97.8516 50.7286C97.8516 61.1378 106.319 69.6057 116.729 69.6057C127.138 69.6057 135.606 61.1378 135.606 50.7286C135.606 40.3194 127.137 31.8516 116.729 31.8516ZM101.309 50.7286C101.309 42.2262 108.226 35.309 116.729 35.309C120.559 35.309 124.066 36.7168 126.766 39.0384L105.038 60.7661C102.717 58.0665 101.309 54.5595 101.309 50.7286ZM116.729 66.1482C113.301 66.1482 110.132 65.0228 107.569 63.1241L129.124 41.5699C131.022 44.133 132.148 47.3017 132.148 50.7292C132.148 59.231 125.231 66.1482 116.729 66.1482Z" fill="#C73838"/>
</g>
<path d="M27.0833 82.5061C28.4636 82.5061 29.8353 82.5147 31.2156 82.5061C31.6383 82.5061 31.992 82.5663 32.1559 83.013C32.2853 83.3909 32.1387 83.6744 31.6642 83.9923C23.0373 83.9923 14.4104 83.9923 5.78353 83.9923C5.55061 83.8462 5.32631 83.7002 5.26592 83.3995C5.17102 82.8927 5.50747 82.5147 6.08547 82.5147C7.53479 82.5061 8.98411 82.5061 10.4334 82.5061C10.5456 82.4288 10.675 82.4116 10.8044 82.4116C13.4442 82.4288 16.0754 82.3601 18.7066 82.403C19.9748 82.3859 21.2429 82.3859 22.5111 82.403C23.8827 82.3773 25.2544 82.3944 26.6347 82.3944C26.79 82.3944 26.9453 82.403 27.0833 82.5061Z" fill="#785353"/>
<path d="M38.5619 40.2756C37.0177 41.5556 35.5339 42.9042 34.1881 44.399C31.4447 47.4486 29.2621 50.859 27.5281 54.5614C25.518 58.8566 24.1722 63.3666 23.3268 68.0226C23.137 69.0792 23.0076 70.1358 22.8523 71.201C22.7747 71.3213 22.8955 71.4501 22.8523 71.5704C22.3433 72.3607 21.7395 73.0909 21.2736 73.907C21.2218 74.0015 21.1269 74.1647 20.9889 73.9671C20.7905 72.9964 20.8164 72.0085 20.7042 71.0292C20.3764 68.2717 19.7639 65.5743 18.9271 62.9285C18.8581 62.7223 18.7891 62.5247 18.7891 62.3014C18.884 60.5833 19.2463 58.9081 19.7035 57.2588C20.0831 55.8757 20.6352 54.5614 21.2391 53.2643C21.3081 53.1268 21.3599 52.9722 21.5152 52.8949C21.8257 52.3795 22.1277 51.864 22.4469 51.3572C25.1385 47.0019 28.9688 43.9609 33.5755 41.8219C34.9817 41.169 36.4397 40.6364 37.9408 40.2498C38.0788 40.2155 38.2168 40.1983 38.3635 40.1639C38.4584 40.1381 38.5619 40.1038 38.5619 40.2756Z" fill="#5ABA64"/>
<path d="M18.8865 62.2495C18.9728 62.9625 19.2575 63.6154 19.4559 64.3026C20.0252 66.287 20.448 68.2886 20.724 70.3417C20.8879 71.5701 20.9656 72.7985 21.0518 74.0269C21.1726 74.1902 21.0691 74.3276 21.0001 74.4651C19.8268 76.6814 19.1539 79.0351 18.921 81.5264C18.9124 81.6638 18.9124 81.8184 18.7398 81.8786C18.5242 81.8442 18.5414 81.6638 18.5242 81.5092C18.2567 77.9528 17.256 74.6111 15.6514 71.4326C15.384 70.9 15.013 70.419 14.8319 69.8348C14.8405 69.6544 14.944 69.474 14.8491 69.2936C14.2797 61.3303 12.123 53.8653 7.75781 47.0273C8.1719 47.1906 8.42208 47.4655 8.69814 47.6974C11.407 49.9567 13.6931 52.5767 15.5738 55.5576C15.6342 55.6521 15.7118 55.738 15.7808 55.8239C16.2294 56.2792 16.471 56.8633 16.7729 57.4045C17.4803 58.7103 18.1014 60.059 18.6277 61.442C18.7312 61.7083 18.7657 61.9918 18.8865 62.2495Z" fill="#68BB6B"/>
<path d="M14.9161 69.8186C15.0973 70.2997 15.3993 70.7206 15.6408 71.1759C16.8917 73.5812 17.7889 76.1153 18.2806 78.787C18.4532 79.7233 18.6257 80.6597 18.6343 81.6218C18.6343 81.7077 18.643 81.7936 18.7206 81.8537C18.8845 82.0771 18.8845 82.2918 18.7206 82.5152C15.96 82.541 13.1994 82.5581 10.4388 82.5152C10.4388 82.4894 10.4474 82.4722 10.4647 82.4551C10.6286 82.3004 10.8443 82.3348 11.034 82.3348C12.0952 82.3348 13.1563 82.3348 14.2174 82.3348C14.666 82.3348 14.7005 82.2918 14.5711 81.8709C14.1484 80.4621 13.51 79.1649 12.5438 78.0396C12.4402 77.9193 12.3281 77.8077 12.3367 77.6358C12.2159 76.2957 11.9226 74.99 11.5775 73.6929C10.5596 69.853 8.91183 66.3395 6.3669 63.2813C5.48696 62.2247 4.50349 61.2626 3.39062 60.4121C4.35684 60.4551 7.85073 62.3535 9.84354 64.0458C11.7587 65.6694 13.4323 67.5078 14.7436 69.6468C14.8299 69.6811 14.8644 69.7585 14.9161 69.8186Z" fill="#6EC277"/>
<path d="M18.8813 62.2499C18.5362 61.8376 18.4672 61.2964 18.2688 60.8239C17.5786 59.1488 16.7763 57.5338 15.836 55.9789C15.8101 55.936 15.8015 55.8758 15.7842 55.8157C16.2415 54.4842 16.4658 53.1011 16.5607 51.7009C16.8367 47.8438 16.2242 44.0984 15.1027 40.4131C15.0768 40.3186 15.0596 40.2241 15.0078 40.0352C18.5707 43.6861 20.7447 47.9211 21.4866 52.8692C20.9862 54.0547 20.4255 55.2058 20.0373 56.4342C19.4507 58.3413 19.0193 60.2655 18.8813 62.2499Z" fill="#91CF96"/>
<path d="M12.3072 77.626C13.4804 78.8544 14.2137 80.3233 14.6968 81.9297C14.8521 82.4452 14.8521 82.4452 14.3259 82.4538C13.0318 82.4538 11.7378 82.4538 10.4438 82.4538C10.2971 80.0656 9.56381 77.9094 7.93333 76.0969C7.64002 75.779 7.3122 75.5127 6.98438 75.2292C7.01026 75.0231 7.14829 75.1347 7.24318 75.1433C8.98581 75.3581 10.5214 76.0281 11.8327 77.1878C11.9966 77.3253 12.1519 77.4713 12.3072 77.626Z" fill="#8CD19A"/>
<path d="M14.9147 69.8189C14.8285 69.7932 14.7681 69.733 14.7422 69.6471C14.8888 69.5612 14.7853 69.4066 14.8371 69.2949C14.9579 69.4581 14.8975 69.6471 14.9147 69.8189Z" fill="#ACD9AE"/>
<path d="M18.7109 82.5067C18.7109 82.2833 18.7109 82.0686 18.7109 81.8452C18.9007 81.5359 18.8145 81.1752 18.8576 80.8487C19.0733 79.1135 19.5305 77.4469 20.1948 75.8405C20.4449 75.222 20.7555 74.6293 21.0402 74.0279C21.5837 73.1689 22.1358 72.327 22.7656 71.5281C22.8173 71.468 22.8605 71.3993 22.9381 71.3563C25.345 68.6074 28.2782 66.6488 31.8066 65.5664C31.4874 65.8499 31.1595 66.1162 30.8576 66.4083C28.8216 68.3583 27.5362 70.755 26.57 73.3579C26.1732 74.4145 25.8799 75.5055 25.6038 76.5965C25.6124 76.7597 25.5434 76.8885 25.4227 77.0088C23.9733 78.3919 23.0675 80.067 22.7138 82.0428C22.6879 82.2146 22.6621 82.3864 22.5154 82.5067C21.2472 82.5067 19.9791 82.5067 18.7109 82.5067Z" fill="#50AF5C"/>
<path d="M22.5078 82.5063C22.758 80.8999 23.2929 79.4138 24.2936 78.1166C24.6041 77.7129 24.9233 77.3005 25.3116 76.9655C25.4323 76.8624 25.5186 76.7421 25.5962 76.6133C25.7429 76.7078 25.7947 76.5532 25.8723 76.5016C27.5804 75.2045 29.5387 74.5945 31.6437 74.3712C31.7386 74.3626 31.8594 74.2509 31.8852 74.4485C30.6343 75.0584 29.6854 76.0034 28.9435 77.1459C27.8737 78.7781 27.2612 80.5821 27.0801 82.5149C25.5531 82.5063 24.0348 82.5063 22.5078 82.5063Z" fill="#68BB6B"/>
<path d="M19 46C8.52358 46 0 54.523 0 65C0 75.477 8.523 84 19 84C29.477 84 38 75.477 38 65C38 54.523 29.4764 46 19 46ZM3.47996 65C3.47996 56.4422 10.4422 49.48 19 49.48C22.8558 49.48 26.3856 50.8969 29.1029 53.2337L7.23368 75.1029C4.89688 72.3856 3.47996 68.8558 3.47996 65ZM19 80.52C15.5502 80.52 12.3608 79.3873 9.78101 77.4762L31.4757 55.7816C33.3867 58.3614 34.5195 61.5508 34.5195 65.0006C34.52 73.5578 27.5578 80.52 19 80.52Z" fill="#C73838"/>
<g clip-path="url(#clip4_1363_1580)">
<path d="M201.729 125.126C216.276 118.502 230.823 111.878 245.37 105.255C246.459 104.456 246.51 103.456 245.905 102.35C245.46 101.373 245.003 100.369 244.558 99.3922C243.428 96.9089 242.31 94.4534 241.179 91.97C239.197 87.6172 237.215 83.2643 235.233 78.9114C233.785 75.7305 232.336 72.5495 230.888 69.3686C225.133 56.7285 219.377 44.0885 213.622 31.4484C212.498 30.9832 211.423 30.3274 210.113 30.789C209.996 32.0889 208.963 32.4917 207.984 32.9375C195.983 38.402 184.009 43.8537 172.008 49.3182C170.973 49.7895 169.953 50.2202 168.969 50.8031C168.158 51.1725 167.151 51.2604 166.863 52.3347C168.176 55.8128 169.882 59.1127 171.404 62.5296C172.303 64.5792 173.23 66.6161 174.186 68.6403C174.303 68.8229 174.45 68.9242 174.654 69C175.582 69.1838 176.357 68.6622 177.113 68.3183C183.923 65.2509 190.737 62.115 197.535 59.0197C198.038 58.7904 198.57 58.5484 199.099 58.375C199.724 58.1912 200.2 58.3453 200.551 58.893C200.822 59.3419 201.026 59.7883 201.242 60.2627C206.425 71.6471 211.622 83.0594 216.805 94.4438C217.847 96.7319 217.801 96.8538 215.535 97.8856C208.597 101.045 201.631 104.216 194.694 107.375C193.91 107.732 192.995 107.947 192.684 108.896C193.116 110.586 193.995 112.073 194.707 113.635C196.127 116.829 197.604 119.997 199.052 123.178C199.486 124.429 200.091 125.535 201.729 125.126Z" fill="#BCD5D1"/>
<path d="M174.413 68.8418C180.511 82.2353 186.622 95.6566 192.721 109.05C200.834 105.356 208.893 101.619 217.031 97.9809C218.374 97.3695 218.601 96.8285 217.978 95.4612C212.345 83.2373 206.754 70.96 201.233 58.6851C200.623 57.3457 200.054 57.1334 198.711 57.7448C190.651 61.4818 182.526 65.1479 174.413 68.8418Z" fill="#DEF4EF"/>
<path d="M192.041 25.8129C191.378 25.5423 191.263 24.9206 191.009 24.3625C189.04 20.0375 187.071 15.7126 185.114 11.4155C180.274 13.6191 175.407 15.8355 170.567 18.0391C171.418 19.9086 172.269 21.7781 173.108 23.6197C174.219 24.0571 175.097 23.388 175.954 22.8967C176.851 22.4206 177.66 22.1197 178.367 23.0781C178.916 23.8388 178.491 24.9082 177.405 25.6385C176.545 26.1984 175.304 26.2918 174.889 27.4576C175.636 29.1724 176.411 30.8745 177.158 32.5893C177.697 33.2535 178.353 32.9885 178.969 32.7082C182.995 30.9426 186.995 29.1211 190.97 27.2438C191.57 27.0042 192.201 26.6833 192.041 25.8129Z" fill="#DEF4EF"/>
<path d="M174.9 27.4856C175.963 27.0016 177.092 26.5885 178.076 26.0056C179.327 25.2674 179.686 23.7564 179.038 22.704C178.375 21.6922 177.132 21.4835 175.964 22.1835L173.055 23.5083C173.639 24.7919 174.274 26.1869 174.9 27.4856Z" fill="#BDD5D1"/>
<path d="M192.035 25.8129L177.137 32.63C175.54 33.4246 173.839 34.0645 172.422 35.1812C167.778 38.7782 166.321 46.1117 169.18 51.278C175.545 48.3459 181.896 45.4544 188.261 42.5223C195.367 39.287 202.488 36.0109 209.619 32.8313C210.822 32.2836 211.227 31.7626 210.472 30.624C207.282 25.8441 202.993 23.2491 197.066 24.0278C195.283 24.2668 193.722 25.2136 192.035 25.8129Z" fill="#F39D00"/>
</g>
</g>
<defs>
<clipPath id="clip0_1363_1580">
<rect width="245" height="138" fill="white"/>
</clipPath>
<clipPath id="clip1_1363_1580">
<rect width="46" height="46" fill="white" transform="translate(50 75)"/>
</clipPath>
<clipPath id="clip2_1363_1580">
<rect width="38" height="38" fill="white" transform="translate(54 79)"/>
</clipPath>
<clipPath id="clip3_1363_1580">
<rect width="37.7541" height="37.7541" fill="white" transform="translate(97.8516 31.8516)"/>
</clipPath>
<clipPath id="clip4_1363_1580">
<rect width="51.7639" height="110.496" fill="white" transform="matrix(-0.9101 0.414388 0.414388 0.9101 201.328 4)"/>
</clipPath>
</defs>
</svg>
