<svg width="248" height="138" viewBox="0 0 248 138" fill="none" xmlns="http://www.w3.org/2000/svg">
<path d="M44 50.2033C44 50.0803 44 49.9748 44 49.8518C44.245 47.5143 45.6103 46.038 47.6231 44.9659C50.0385 43.683 52.4014 42.277 54.7994 40.994C56.2346 40.2207 57.0222 39.1662 56.8647 37.4966C56.8297 37.0923 56.8472 36.6705 56.8822 36.2663C56.8997 35.9148 56.9522 35.5633 57.3548 35.4051C57.7574 35.2821 58.1599 35.2821 58.5625 35.2821C64.321 35.2821 70.062 35.2821 75.8205 35.2821C76.223 35.2821 76.6431 35.2645 77.0282 35.3876C77.5183 35.5457 77.6583 35.95 77.6933 36.4245C77.7283 37.0045 77.7283 37.602 77.7108 38.182C77.6408 40.2734 78.5334 41.8727 80.2662 42.9624C82.1215 44.1223 84.0819 45.1065 85.9722 46.1962C87.0049 46.7937 88.0726 47.3386 89.0877 47.9713C90.0504 48.5688 90.558 49.4651 90.628 50.5899C90.698 51.6444 90.663 52.6989 90.6455 53.7534C90.628 54.1049 90.593 54.474 90.1904 54.6322C89.7529 54.7376 89.3153 54.7025 88.8777 54.7025C74.4727 54.7025 60.0678 54.7025 45.6803 54.7025C45.1902 54.7025 44.6826 54.8079 44.2275 54.5443C43.93 53.7886 44.1575 52.9977 44.0875 52.2244C44.035 51.539 44.1925 50.8536 44 50.2033Z" fill="#F6BD57"/>
<path d="M93.2053 103.806C93.2053 106.302 93.2403 108.815 93.2228 111.311C93.2053 112.734 92.2426 113.455 91.1049 114C76.1749 114 61.2273 114 46.2973 114C44.722 113.631 44.1619 112.963 44.1094 111.416C44.1094 111.258 44.1619 111.118 44.2669 110.995C44.8095 110.573 45.4396 110.696 46.0347 110.696C57.3066 110.696 68.5786 110.696 79.8505 110.696C81.8634 110.696 83.8762 110.608 85.8715 110.713C88.2344 110.836 90.1248 108.763 90.0723 106.53C90.0548 105.968 90.0548 105.423 90.0898 104.861C90.1073 104.474 90.1073 104.088 90.3698 103.771C91.315 103.349 92.2601 103.297 93.2053 103.806Z" fill="#F4A34E"/>
<path d="M44 103.808C44 87.4102 44 70.9951 44 54.5977C44.0525 54.5801 44.1224 54.5801 44.1749 54.5625C44.2623 54.6328 44.3323 54.7207 44.3847 54.8437C44.5421 55.3007 44.5071 55.7752 44.5071 56.2321C44.5071 71.5575 44.5071 86.8829 44.5071 102.191C44.5071 102.595 44.5246 103.017 44.4372 103.421C44.4022 103.526 44.3672 103.632 44.2973 103.737C44.2273 103.825 44.1224 103.86 44 103.808Z" fill="#FCF1D5"/>
<path d="M44.1574 111.557C44.1049 111.557 44.0525 111.557 44 111.54C44 108.956 44 106.39 44 103.807C44.0525 103.807 44.1224 103.807 44.1749 103.807C44.4896 104.088 44.4896 104.474 44.4896 104.861C44.5071 106.583 44.4896 108.306 44.4896 110.011C44.4896 110.432 44.3847 110.819 44.1924 111.188C44.1924 111.311 44.1749 111.434 44.1574 111.557Z" fill="#FBE4BD"/>
<path d="M44.1754 54.5969C44.1227 54.5969 44.0701 54.5969 44 54.5969C44 53.1381 44 51.6618 44 50.2031C44.3507 50.8534 44.1227 51.5564 44.1578 52.2242C44.1929 52.9448 44.1754 53.683 44.1929 54.4035C44.2455 54.4738 44.2455 54.5441 44.1754 54.5969Z" fill="#FBE5BD"/>
<path d="M44.1719 54.5969C44.1719 54.5266 44.1894 54.4739 44.1894 54.4036C56.1789 54.4036 68.1685 54.4212 80.1406 54.4212C83.5536 54.4212 86.9667 54.4212 90.3798 54.4212C90.8174 54.0345 91.36 54.1399 91.8676 54.1048C92.7952 54.0696 92.8477 54.0169 92.8652 53.1206C92.8827 52.5406 92.8477 51.9607 92.8827 51.3807C92.9002 51.0116 92.8652 50.6249 93.2153 50.3438C93.4778 51.7146 93.3028 53.0854 93.3028 54.4387C93.3028 54.8781 93.2153 55.3175 93.2153 55.7393C93.2153 71.3986 93.2153 87.0579 93.2153 102.735C93.2153 103.086 93.1978 103.438 93.1978 103.789C92.2701 103.807 91.325 103.807 90.3973 103.824C90.3623 103.789 90.3098 103.737 90.2748 103.701C89.9772 103.157 90.0648 102.559 90.0648 101.979C90.0648 86.9349 90.0648 71.8907 90.0648 56.8289C90.0648 54.7199 90.2573 54.9132 88.1219 54.9132C74.067 54.9132 60.0121 54.9132 45.9572 54.9132C45.3446 54.9308 44.697 55.0538 44.1719 54.5969C44.1894 54.5969 44.1719 54.5969 44.1719 54.5969Z" fill="#F8CD84"/>
<path d="M93.2187 50.344C93.2012 51.4512 93.1662 52.5409 93.1837 53.6481C93.2012 54.2808 92.9736 54.4741 92.3785 54.4214C91.7134 54.3862 91.0483 54.4038 90.3832 54.4038C90.3832 53.2087 90.3832 51.996 90.3832 50.8009C90.3657 49.6058 89.8756 48.6744 88.8079 48.0768C86.1475 46.5829 83.4695 45.1066 80.809 43.6128C78.6037 42.3825 77.3084 40.625 77.431 37.9712C77.466 37.1979 77.6235 36.3894 77.2734 35.6337C77.3259 35.6161 77.396 35.5986 77.4485 35.581C78.3761 35.1592 79.3038 35.124 80.2139 35.6161C80.2314 36.3719 80.2665 37.1452 80.2314 37.9009C80.1789 39.3596 80.8441 40.3262 82.0868 41.0117C84.8172 42.5055 87.5477 44.0346 90.2607 45.5812C92.0985 46.6181 93.0962 48.2174 93.2187 50.344Z" fill="#F4A34E"/>
<path d="M44.2069 111.189C44.1894 108.729 44.1894 106.268 44.1719 103.808L44.1894 103.826C44.6795 103.369 45.2746 103.492 45.8522 103.492C53.396 103.492 60.9573 103.492 68.5011 103.492C75.2572 103.492 82.0309 103.492 88.787 103.492C89.3296 103.492 89.9072 103.404 90.3798 103.808V103.843C90.3098 105.091 90.4673 106.339 90.2748 107.604C89.9772 109.379 87.9819 111.066 85.9515 111.066C72.4392 110.996 58.9269 111.031 45.4146 111.031C44.9945 111.014 44.5744 110.943 44.2069 111.189Z" fill="#F6BD57"/>
<path d="M90.3817 103.788C82.7154 103.788 75.0491 103.806 67.3652 103.806C59.6289 103.806 51.9101 103.806 44.1738 103.806C44.1738 95.7388 44.1562 87.6543 44.1562 79.5873C44.1562 71.2568 44.1562 62.9087 44.1562 54.5781C59.1388 54.5781 74.1389 54.5781 89.1215 54.5781C90.3467 54.5781 90.3467 54.5781 90.3467 55.8084C90.3817 71.8192 90.3817 87.8124 90.3817 103.788Z" fill="#FADD94"/>
<path d="M69.1542 84.1545C68.9849 84.1545 68.8138 84.1511 68.6427 84.1425L67.8605 84.1063L67.8244 83.3208C67.6903 80.4169 68.6944 77.7349 70.6528 75.7685C72.6111 73.803 75.2796 72.7904 78.1733 72.9285L78.9556 72.9656L78.9926 73.7511C79.1267 76.655 78.1217 79.3362 76.1642 81.3026C74.3218 83.1524 71.8485 84.1545 69.1542 84.1545Z" fill="#91CF96"/>
<path d="M69.0991 76.6098L68.334 76.2775C65.6148 75.0975 63.4501 72.8134 62.3927 70.0114C61.3241 67.1767 61.447 64.0932 62.7391 61.3283L63.0933 60.5703L63.8585 60.9026C66.5768 62.0826 68.7424 64.3667 69.7989 67.1687C70.8683 70.0034 70.7454 73.087 69.4533 75.8518L69.0991 76.6098Z" fill="#91CF96"/>
<path d="M68.6651 88.4613H68.6736H68.6651ZM68.1939 89.3358C65.4988 89.3358 63.0263 88.3336 61.184 86.4837C59.2266 84.5173 58.2215 81.8353 58.3556 78.9314L58.3917 78.1459L59.174 78.1097C62.0694 77.9742 64.737 78.9833 66.6953 80.9498C68.6537 82.9162 69.6578 85.5982 69.5237 88.5012L69.4877 89.2876L68.7045 89.3239C68.5335 89.3314 68.3632 89.3358 68.1939 89.3358Z" fill="#91CF96"/>
<path d="M68.6722 96.6565C68.1976 96.6565 67.8125 96.2698 67.8125 95.7933V75.0761C67.8125 74.5996 68.1976 74.2129 68.6722 74.2129C69.1467 74.2129 69.5318 74.5996 69.5318 75.0761V95.7933C69.5318 96.2698 69.1467 96.6565 68.6722 96.6565Z" fill="#5ABA63"/>
<path d="M68.6724 84.1559C68.4523 84.1559 68.2323 84.0714 68.0646 83.903C67.7285 83.5655 67.7285 83.0199 68.0646 82.6825L73.2305 77.4954C73.5667 77.1578 74.1108 77.1578 74.4461 77.4954C74.7823 77.832 74.7823 78.3785 74.4461 78.7159L69.2802 83.903C69.1126 84.0714 68.8926 84.1559 68.6724 84.1559Z" fill="#5ABA63"/>
<path d="M68.6717 76.3494C68.3158 76.3494 67.9831 76.1259 67.8593 75.7685L65.1728 67.9909C65.0171 67.5403 65.2545 67.0491 65.7032 66.892C66.1511 66.7349 66.6411 66.974 66.7976 67.4255L69.4841 75.2031C69.6397 75.6536 69.4024 76.1449 68.9537 76.3011C68.86 76.3339 68.7654 76.3494 68.6717 76.3494Z" fill="#5ABA63"/>
<path d="M68.6743 89.3356C68.4541 89.3356 68.2341 89.2511 68.0665 89.0828L62.9084 83.9034C62.5722 83.5659 62.5722 83.0203 62.9084 82.6829C63.2446 82.3453 63.7879 82.3453 64.124 82.6829L69.2821 87.8622C69.6182 88.1997 69.6182 88.7453 69.2821 89.0828C69.1144 89.2511 68.8944 89.3356 68.6743 89.3356Z" fill="#5ABA63"/>
<path d="M109.32 50.2033C109.32 50.0803 109.32 49.9748 109.32 49.8518C109.565 47.5143 110.931 46.038 112.943 44.9659C115.359 43.683 117.722 42.277 120.12 40.994C121.555 40.2207 122.343 39.1662 122.185 37.4966C122.15 37.0923 122.168 36.6705 122.203 36.2663C122.22 35.9148 122.273 35.5633 122.675 35.4051C123.078 35.2821 123.48 35.2821 123.883 35.2821C129.641 35.2821 135.382 35.2821 141.141 35.2821C141.543 35.2821 141.963 35.2645 142.348 35.3876C142.839 35.5457 142.979 35.95 143.014 36.4245C143.049 37.0045 143.049 37.602 143.031 38.182C142.961 40.2734 143.854 41.8727 145.587 42.9624C147.442 44.1223 149.402 45.1065 151.293 46.1962C152.325 46.7937 153.393 47.3386 154.408 47.9713C155.371 48.5688 155.878 49.4651 155.948 50.5899C156.018 51.6444 155.983 52.6989 155.966 53.7534C155.948 54.1049 155.913 54.474 155.511 54.6322C155.073 54.7376 154.636 54.7025 154.198 54.7025C139.793 54.7025 125.388 54.7025 111.001 54.7025C110.511 54.7025 110.003 54.8079 109.548 54.5443C109.25 53.7886 109.478 52.9977 109.408 52.2244C109.355 51.539 109.513 50.8536 109.32 50.2033Z" fill="#F6BD57"/>
<path d="M158.518 103.806C158.518 106.302 158.553 108.815 158.535 111.311C158.518 112.734 157.555 113.455 156.417 114C141.487 114 126.54 114 111.61 114C110.034 113.631 109.474 112.963 109.422 111.416C109.422 111.258 109.474 111.118 109.579 110.995C110.122 110.573 110.752 110.696 111.347 110.696C122.619 110.696 133.891 110.696 145.163 110.696C147.176 110.696 149.189 110.608 151.184 110.713C153.547 110.836 155.437 108.763 155.385 106.53C155.367 105.968 155.367 105.423 155.402 104.861C155.42 104.474 155.42 104.088 155.682 103.771C156.627 103.349 157.573 103.297 158.518 103.806Z" fill="#F4A34E"/>
<path d="M109.32 103.806C109.32 87.4082 109.32 70.9932 109.32 54.5957C109.373 54.5781 109.443 54.5781 109.495 54.5605C109.583 54.6308 109.653 54.7187 109.705 54.8417C109.862 55.2987 109.827 55.7732 109.827 56.2302C109.827 71.5556 109.827 86.8809 109.827 102.189C109.827 102.593 109.845 103.015 109.757 103.419C109.723 103.524 109.688 103.63 109.618 103.735C109.548 103.823 109.443 103.858 109.32 103.806Z" fill="#FCF1D5"/>
<path d="M109.478 111.557C109.425 111.557 109.373 111.557 109.32 111.54C109.32 108.956 109.32 106.39 109.32 103.807C109.373 103.807 109.443 103.807 109.495 103.807C109.81 104.088 109.81 104.474 109.81 104.861C109.827 106.583 109.81 108.306 109.81 110.011C109.81 110.432 109.705 110.819 109.513 111.188C109.513 111.311 109.495 111.434 109.478 111.557Z" fill="#FBE4BD"/>
<path d="M109.496 54.5969C109.443 54.5969 109.39 54.5969 109.32 54.5969C109.32 53.1381 109.32 51.6618 109.32 50.2031C109.671 50.8534 109.443 51.5564 109.478 52.2242C109.513 52.9448 109.496 53.683 109.513 54.4035C109.566 54.4738 109.566 54.5441 109.496 54.5969Z" fill="#FBE5BD"/>
<path d="M109.492 54.5969C109.492 54.5266 109.51 54.4739 109.51 54.4036C121.499 54.4036 133.489 54.4211 145.461 54.4211C148.874 54.4211 152.287 54.4211 155.7 54.4211C156.138 54.0345 156.68 54.1399 157.188 54.1048C158.116 54.0696 158.168 54.0169 158.186 53.1206C158.203 52.5406 158.168 51.9607 158.203 51.3807C158.221 51.0116 158.186 50.6249 158.536 50.3438C158.798 51.7146 158.623 53.0854 158.623 54.4387C158.623 54.8781 158.536 55.3175 158.536 55.7393C158.536 71.3986 158.536 87.0579 158.536 102.735C158.536 103.086 158.518 103.438 158.518 103.789C157.59 103.807 156.645 103.807 155.718 103.824C155.683 103.789 155.63 103.737 155.595 103.701C155.298 103.157 155.385 102.559 155.385 101.979C155.385 86.9349 155.385 71.8907 155.385 56.8289C155.385 54.7199 155.578 54.9132 153.442 54.9132C139.387 54.9132 125.332 54.9132 111.277 54.9132C110.665 54.9308 110.017 55.0538 109.492 54.5969C109.51 54.5969 109.492 54.5969 109.492 54.5969Z" fill="#F8CD84"/>
<path d="M158.539 50.344C158.521 51.4512 158.486 52.5409 158.504 53.6481C158.521 54.2808 158.294 54.4741 157.699 54.4214C157.034 54.3862 156.369 54.4038 155.704 54.4038C155.704 53.2087 155.704 51.996 155.704 50.8009C155.686 49.6058 155.196 48.6744 154.128 48.0768C151.468 46.5829 148.79 45.1066 146.129 43.6128C143.924 42.3825 142.629 40.625 142.751 37.9712C142.786 37.1979 142.944 36.3894 142.594 35.6337C142.646 35.6161 142.716 35.5986 142.769 35.581C143.696 35.1592 144.624 35.124 145.534 35.6161C145.552 36.3719 145.587 37.1452 145.552 37.9009C145.499 39.3596 146.164 40.3262 147.407 41.0117C150.138 42.5055 152.868 44.0346 155.581 45.5812C157.419 46.6181 158.416 48.2174 158.539 50.344Z" fill="#F4A34E"/>
<path d="M134.002 24.0512C134.999 24.0512 135.997 24.0512 136.977 24.0512C137.327 24.4027 137.275 24.8597 137.275 25.2815C137.292 26.9687 137.275 28.6735 137.275 30.3607C137.275 30.7122 137.275 31.0637 137.327 31.4152C137.397 31.9073 137.66 32.206 138.167 32.2763C138.692 32.3466 139.077 32.1533 139.305 31.6612C139.48 31.2746 139.462 30.8703 139.462 30.4485C139.48 28.7262 139.462 27.0038 139.462 25.2815C139.462 24.8421 139.41 24.4027 139.76 24.0512C140.985 24.0864 142.245 23.8403 143.453 24.1918C143.121 24.6664 143.051 25.1936 143.051 25.756C143.051 28.568 143.051 31.3624 143.051 34.1744C143.051 34.6314 143.103 35.1059 142.858 35.5453C142.788 35.6507 142.683 35.6859 142.578 35.6683C136.749 35.6507 130.921 35.6507 125.092 35.6332C124.217 35.6332 123.342 35.6332 122.467 35.6332C122.467 32.6981 122.415 29.7631 122.45 26.8105C122.485 25.176 123.745 24.0512 125.425 24.0512C125.67 24.5258 125.548 25.0354 125.548 25.51C125.565 27.0917 125.548 28.6735 125.548 30.2376C125.548 30.677 125.565 31.1164 125.723 31.5382C125.915 32.0654 126.3 32.3115 126.86 32.2763C127.42 32.2412 127.683 31.8897 127.823 31.4152C127.91 31.0812 127.893 30.7122 127.893 30.3782C127.893 28.691 127.893 26.9863 127.893 25.2991C127.893 24.8597 127.84 24.4203 128.191 24.0512C129.188 24.0512 130.186 24.0512 131.166 24.0512C131.516 24.4027 131.464 24.8597 131.464 25.2815C131.481 26.9687 131.464 28.6735 131.464 30.3607C131.464 30.7122 131.464 31.0637 131.516 31.4152C131.586 31.9073 131.849 32.206 132.356 32.2763C132.881 32.3466 133.266 32.1533 133.494 31.6612C133.669 31.2746 133.651 30.8703 133.651 30.4485C133.669 28.7262 133.651 27.0038 133.651 25.2815C133.704 24.8597 133.651 24.4027 134.002 24.0512Z" fill="#5F5260"/>
<path d="M145.533 35.6155C144.605 35.5979 143.678 35.5979 142.768 35.5803C142.768 32.0653 142.768 28.5503 142.75 25.0353C142.75 24.4905 142.803 24.0863 143.485 24.1741C144.745 24.5608 145.55 25.4923 145.55 26.7577C145.568 29.7278 145.533 32.6629 145.533 35.6155Z" fill="#4D3E4F"/>
<path d="M128.225 24.0508C128.225 26.318 128.225 28.6027 128.225 30.8699C128.225 32.0474 127.787 32.6098 126.894 32.6274C125.827 32.6625 125.319 32.1704 125.267 30.9226C125.214 29.6045 125.214 28.3039 125.267 26.9858C125.302 26.0016 125.057 24.9998 125.424 24.0508C126.369 24.0508 127.297 24.0508 128.225 24.0508Z" fill="#4D3E4F"/>
<path d="M134.004 24.0508C134.004 26.3883 134.021 28.7257 134.004 31.0632C134.004 32.1001 133.496 32.6449 132.568 32.6449C131.606 32.6449 131.203 32.2583 131.203 31.2389C131.186 28.8488 131.203 26.441 131.203 24.0508C132.148 24.0508 133.076 24.0508 134.004 24.0508Z" fill="#4D3E4F"/>
<path d="M139.777 24.0508C139.777 26.3883 139.795 28.7257 139.777 31.0632C139.777 32.1001 139.269 32.6449 138.342 32.6449C137.379 32.6449 136.977 32.2583 136.977 31.2389C136.959 28.8488 136.977 26.441 136.977 24.0508C137.922 24.0508 138.849 24.0508 139.777 24.0508Z" fill="#4D3E4F"/>
<path d="M109.527 111.188C109.51 108.727 109.51 106.267 109.492 103.806L109.51 103.824C110 103.367 110.595 103.49 111.172 103.49C118.716 103.49 126.278 103.49 133.821 103.49C140.578 103.49 147.351 103.49 154.107 103.49C154.65 103.49 155.228 103.402 155.7 103.806V103.841C155.63 105.089 155.788 106.337 155.595 107.602C155.298 109.377 153.302 111.064 151.272 111.064C137.76 110.994 124.247 111.029 110.735 111.029C110.315 111.012 109.895 110.941 109.527 111.188Z" fill="#F6BD57"/>
<path d="M155.702 103.788C148.036 103.788 140.369 103.806 132.686 103.806C124.949 103.806 117.23 103.806 109.494 103.806C109.494 95.7387 109.477 87.6542 109.477 79.5873C109.477 71.2568 109.477 62.9087 109.477 54.5781C124.459 54.5781 139.459 54.5781 154.442 54.5781C155.667 54.5781 155.667 54.5781 155.667 55.8084C155.702 71.8192 155.702 87.8124 155.702 103.788Z" fill="#FADD94"/>
<path d="M124.395 63.4112C123.123 72.363 126.046 75.7207 134.982 76.9397C136.254 67.9878 133.331 64.6301 124.395 63.4112Z" fill="#81C784"/>
<path d="M134.362 76.3288C141.76 81.4736 146.056 80.3473 151.139 72.8598C143.742 67.7149 139.446 68.8411 134.362 76.3288Z" fill="#81C784"/>
<path d="M132.378 98.4825C131.933 98.4825 131.549 98.1457 131.496 97.6862C130.492 89.1608 132.491 78.1463 134.253 74.6026C134.475 74.1584 135.01 73.9769 135.448 74.2026C135.887 74.4274 136.064 74.9709 135.842 75.4151C134.366 78.3817 132.266 89.0099 133.262 97.473C133.321 97.9678 132.972 98.4174 132.484 98.476C132.449 98.4807 132.413 98.4825 132.378 98.4825Z" fill="#4CAF50"/>
<path d="M174.641 50.2033C174.641 50.0803 174.641 49.9748 174.641 49.8518C174.886 47.5143 176.251 46.038 178.264 44.9659C180.679 43.683 183.042 42.277 185.44 40.994C186.875 40.2207 187.663 39.1662 187.505 37.4966C187.47 37.0923 187.488 36.6705 187.523 36.2663C187.54 35.9148 187.593 35.5633 187.995 35.4051C188.398 35.2821 188.801 35.2821 189.203 35.2821C194.962 35.2821 200.703 35.2821 206.461 35.2821C206.864 35.2821 207.284 35.2645 207.669 35.3876C208.159 35.5457 208.299 35.95 208.334 36.4245C208.369 37.0045 208.369 37.602 208.351 38.182C208.281 40.2734 209.174 41.8727 210.907 42.9624C212.762 44.1223 214.723 45.1065 216.613 46.1962C217.646 46.7937 218.713 47.3386 219.728 47.9713C220.691 48.5688 221.199 49.4651 221.269 50.5899C221.339 51.6444 221.304 52.6989 221.286 53.7534C221.269 54.1049 221.234 54.474 220.831 54.6322C220.393 54.7376 219.956 54.7025 219.518 54.7025C205.113 54.7025 190.708 54.7025 176.321 54.7025C175.831 54.7025 175.323 54.8079 174.868 54.5443C174.571 53.7886 174.798 52.9977 174.728 52.2244C174.676 51.539 174.833 50.8536 174.641 50.2033Z" fill="#F6BD57"/>
<path d="M223.846 103.806C223.846 106.302 223.881 108.815 223.863 111.311C223.846 112.734 222.883 113.455 221.746 114C206.816 114 191.868 114 176.938 114C175.363 113.631 174.803 112.963 174.75 111.416C174.75 111.258 174.803 111.118 174.908 110.995C175.45 110.573 176.08 110.696 176.675 110.696C187.947 110.696 199.219 110.696 210.491 110.696C212.504 110.696 214.517 110.608 216.512 110.713C218.875 110.836 220.765 108.763 220.713 106.53C220.695 105.968 220.695 105.423 220.73 104.861C220.748 104.474 220.748 104.088 221.01 103.771C221.956 103.349 222.901 103.297 223.846 103.806Z" fill="#F4A34E"/>
<path d="M174.641 103.808C174.641 87.4102 174.641 70.9951 174.641 54.5977C174.693 54.5801 174.763 54.5801 174.815 54.5625C174.903 54.6328 174.973 54.7207 175.025 54.8437C175.183 55.3007 175.148 55.7752 175.148 56.2321C175.148 71.5575 175.148 86.8829 175.148 102.191C175.148 102.595 175.165 103.017 175.078 103.421C175.043 103.526 175.008 103.632 174.938 103.737C174.868 103.825 174.763 103.86 174.641 103.808Z" fill="#FCF1D5"/>
<path d="M174.798 111.557C174.746 111.557 174.693 111.557 174.641 111.54C174.641 108.956 174.641 106.39 174.641 103.807C174.693 103.807 174.763 103.807 174.815 103.807C175.13 104.088 175.13 104.474 175.13 104.861C175.148 106.583 175.13 108.306 175.13 110.011C175.13 110.432 175.025 110.819 174.833 111.188C174.833 111.311 174.815 111.434 174.798 111.557Z" fill="#FBE4BD"/>
<path d="M174.816 54.5969C174.763 54.5969 174.711 54.5969 174.641 54.5969C174.641 53.1381 174.641 51.6618 174.641 50.2031C174.991 50.8534 174.763 51.5564 174.798 52.2242C174.834 52.9448 174.816 53.683 174.834 54.4035C174.886 54.4738 174.886 54.5441 174.816 54.5969Z" fill="#FBE5BD"/>
<path d="M174.812 54.5969C174.812 54.5266 174.83 54.4739 174.83 54.4036C186.82 54.4036 198.809 54.4212 210.781 54.4212C214.194 54.4212 217.607 54.4212 221.02 54.4212C221.458 54.0345 222.001 54.1399 222.508 54.1048C223.436 54.0696 223.488 54.0169 223.506 53.1206C223.523 52.5406 223.488 51.9607 223.523 51.3807C223.541 51.0116 223.506 50.6249 223.856 50.3438C224.118 51.7146 223.943 53.0854 223.943 54.4387C223.943 54.8781 223.856 55.3175 223.856 55.7393C223.856 71.3986 223.856 87.0579 223.856 102.735C223.856 103.086 223.838 103.438 223.838 103.789C222.911 103.807 221.966 103.807 221.038 103.824C221.003 103.789 220.95 103.737 220.915 103.701C220.618 103.157 220.705 102.559 220.705 101.979C220.705 86.9349 220.705 71.8907 220.705 56.8289C220.705 54.7199 220.898 54.9132 218.763 54.9132C204.708 54.9132 190.653 54.9132 176.598 54.9132C175.985 54.9308 175.338 55.0538 174.812 54.5969C174.83 54.5969 174.812 54.5969 174.812 54.5969Z" fill="#F8CD84"/>
<path d="M223.859 50.344C223.842 51.4512 223.807 52.5409 223.824 53.6481C223.842 54.2808 223.614 54.4741 223.019 54.4214C222.354 54.3862 221.689 54.4038 221.024 54.4038C221.024 53.2087 221.024 51.996 221.024 50.8009C221.006 49.6058 220.516 48.6744 219.449 48.0768C216.788 46.5829 214.11 45.1066 211.45 43.6128C209.244 42.3825 207.949 40.625 208.072 37.9712C208.107 37.1979 208.264 36.3894 207.914 35.6337C207.967 35.6161 208.037 35.5986 208.089 35.581C209.017 35.1592 209.944 35.124 210.855 35.6161C210.872 36.3719 210.907 37.1452 210.872 37.9009C210.82 39.3596 211.485 40.3262 212.727 41.0117C215.458 42.5055 218.188 44.0346 220.901 45.5812C222.739 46.6181 223.737 48.2174 223.859 50.344Z" fill="#F4A34E"/>
<path d="M199.322 24.0512C200.32 24.0512 201.317 24.0512 202.297 24.0512C202.647 24.4027 202.595 24.8597 202.595 25.2815C202.612 26.9687 202.595 28.6735 202.595 30.3607C202.595 30.7122 202.595 31.0637 202.647 31.4152C202.717 31.9073 202.98 32.206 203.488 32.2763C204.013 32.3466 204.398 32.1533 204.625 31.6612C204.8 31.2746 204.783 30.8703 204.783 30.4485C204.8 28.7262 204.783 27.0038 204.783 25.2815C204.783 24.8421 204.73 24.4027 205.08 24.0512C206.306 24.0864 207.566 23.8403 208.773 24.1918C208.441 24.6664 208.371 25.1936 208.371 25.756C208.371 28.568 208.371 31.3624 208.371 34.1744C208.371 34.6314 208.423 35.1059 208.178 35.5453C208.108 35.6507 208.003 35.6859 207.898 35.6683C202.07 35.6507 196.241 35.6507 190.413 35.6332C189.538 35.6332 188.662 35.6332 187.787 35.6332C187.787 32.6981 187.735 29.7631 187.77 26.8105C187.805 25.176 189.065 24.0512 190.745 24.0512C190.99 24.5258 190.868 25.0354 190.868 25.51C190.885 27.0917 190.868 28.6735 190.868 30.2376C190.868 30.677 190.885 31.1164 191.043 31.5382C191.235 32.0654 191.621 32.3115 192.181 32.2763C192.741 32.2412 193.003 31.8897 193.143 31.4152C193.231 31.0812 193.213 30.7122 193.213 30.3782C193.213 28.691 193.213 26.9863 193.213 25.2991C193.213 24.8597 193.161 24.4203 193.511 24.0512C194.509 24.0512 195.506 24.0512 196.486 24.0512C196.836 24.4027 196.784 24.8597 196.784 25.2815C196.801 26.9687 196.784 28.6735 196.784 30.3607C196.784 30.7122 196.784 31.0637 196.836 31.4152C196.906 31.9073 197.169 32.206 197.677 32.2763C198.202 32.3466 198.587 32.1533 198.814 31.6612C198.989 31.2746 198.972 30.8703 198.972 30.4485C198.989 28.7262 198.972 27.0038 198.972 25.2815C199.024 24.8597 198.972 24.4027 199.322 24.0512Z" fill="#5F5260"/>
<path d="M210.853 35.6155C209.926 35.5979 208.998 35.5979 208.088 35.5803C208.088 32.0653 208.088 28.5503 208.07 25.0353C208.07 24.4905 208.123 24.0863 208.805 24.1741C210.066 24.5608 210.871 25.4923 210.871 26.7577C210.888 29.7278 210.853 32.6629 210.853 35.6155Z" fill="#4D3E4F"/>
<path d="M193.545 24.0508C193.545 26.318 193.545 28.6027 193.545 30.8699C193.545 32.0474 193.107 32.6098 192.215 32.6274C191.147 32.6625 190.639 32.1704 190.587 30.9226C190.534 29.6045 190.534 28.3039 190.587 26.9858C190.622 26.0016 190.377 24.9998 190.744 24.0508C191.69 24.0508 192.617 24.0508 193.545 24.0508Z" fill="#4D3E4F"/>
<path d="M199.324 24.0508C199.324 26.3883 199.341 28.7257 199.324 31.0632C199.324 32.1001 198.816 32.645 197.889 32.645C196.926 32.645 196.523 32.2583 196.523 31.239C196.506 28.8488 196.523 26.441 196.523 24.0508C197.469 24.0508 198.396 24.0508 199.324 24.0508Z" fill="#4D3E4F"/>
<path d="M205.097 24.0508C205.097 26.3883 205.115 28.7257 205.097 31.0632C205.097 32.1001 204.59 32.645 203.662 32.645C202.699 32.645 202.297 32.2583 202.297 31.239C202.279 28.8488 202.297 26.441 202.297 24.0508C203.242 24.0508 204.17 24.0508 205.097 24.0508Z" fill="#4D3E4F"/>
<path d="M174.848 111.188C174.83 108.727 174.83 106.267 174.812 103.806L174.83 103.824C175.32 103.367 175.915 103.49 176.493 103.49C184.037 103.49 191.598 103.49 199.142 103.49C205.898 103.49 212.672 103.49 219.428 103.49C219.97 103.49 220.548 103.402 221.02 103.806V103.841C220.95 105.089 221.108 106.337 220.915 107.602C220.618 109.377 218.623 111.065 216.592 111.065C203.08 110.994 189.568 111.029 176.055 111.029C175.635 111.012 175.215 110.941 174.848 111.188Z" fill="#F6BD57"/>
<path d="M221.022 103.788C213.356 103.788 205.69 103.806 198.006 103.806C190.27 103.806 182.551 103.806 174.814 103.806C174.814 95.7388 174.797 87.6543 174.797 79.5873C174.797 71.2568 174.797 62.9087 174.797 54.5781C189.779 54.5781 204.78 54.5781 219.762 54.5781C220.987 54.5781 220.987 54.5781 220.987 55.8084C221.022 71.8192 221.022 87.8124 221.022 103.788Z" fill="#FADD94"/>
<path d="M196.52 69.0039C196.533 69.0039 196.547 69.0039 196.566 69.0039C196.645 69.0689 196.691 69.1571 196.737 69.2499C197.607 71.0229 198.302 72.8608 198.801 74.7777C199.199 76.3001 199.468 77.841 199.63 79.4051C199.746 80.5422 199.75 81.6887 199.732 82.8304C199.699 84.9561 199.449 87.054 198.815 89.0916C198.565 89.8899 198.246 90.6603 197.723 91.3287C197.478 91.6443 197.168 91.8532 196.797 91.9831C196.765 91.9831 196.737 91.9831 196.705 91.9831C196.58 91.946 196.459 91.946 196.334 91.9831C196.302 91.9831 196.274 91.9831 196.242 91.9831C195.682 91.7928 195.325 91.3705 195.029 90.8924C194.469 89.9781 194.159 88.9663 193.918 87.9312C193.641 86.7477 193.483 85.5456 193.391 84.3342C193.307 83.276 193.275 82.2178 193.312 81.1642C193.414 78.5882 193.821 76.0634 194.59 73.5988C195.052 72.1182 195.617 70.6841 196.302 69.2963C196.358 69.1849 196.404 69.0689 196.52 69.0039Z" fill="#785353"/>
<path d="M196.797 91.9844C196.894 91.8219 197.093 91.8219 197.232 91.7152C197.751 91.316 198.061 90.773 198.325 90.1974C198.801 89.1624 199.07 88.0671 199.278 86.9532C199.394 86.3266 199.463 85.6954 199.537 85.0641C199.699 83.6903 199.681 82.3072 199.662 80.9287C199.648 80.1072 199.556 79.2903 199.454 78.4735C199.324 77.4106 199.125 76.3663 198.88 75.3266C198.658 74.3891 198.385 73.4701 198.065 72.5604C197.644 71.3769 197.154 70.2212 196.593 69.0933C196.58 69.0655 196.58 69.033 196.57 69.0051C196.779 68.9819 196.936 69.0887 197.089 69.214C198.283 70.1794 199.38 71.2423 200.38 72.4072C200.449 72.4861 200.5 72.5836 200.602 72.6393C200.727 72.695 200.791 72.8157 200.875 72.9178C201.601 73.8368 202.273 74.7929 202.819 75.8325C202.856 75.9022 202.902 75.9625 202.939 76.0275C203.726 77.5545 204.267 79.1557 204.448 80.8684C204.522 81.5599 204.531 82.2561 204.457 82.9523C204.267 85.1755 203.582 87.2177 202.217 89.0046C202.087 89.1763 201.949 89.3434 201.801 89.4966C201.726 89.5755 201.648 89.6498 201.625 89.7612C201.463 89.7983 201.342 89.8911 201.222 90.0025C200.185 90.9679 198.991 91.6223 197.584 91.873C197.371 91.9101 197.144 91.8915 196.941 91.9844C196.89 91.9844 196.843 91.9844 196.797 91.9844Z" fill="#9A7863"/>
<path d="M196.516 69.0045C195.827 70.3551 195.248 71.7475 194.781 73.1863C194.318 74.6158 193.961 76.0686 193.735 77.5538C193.61 78.3753 193.517 79.1968 193.448 80.023C193.364 81.0626 193.337 82.1069 193.378 83.1419C193.42 84.2141 193.512 85.2862 193.684 86.3491C193.841 87.3238 194.035 88.2845 194.35 89.2221C194.582 89.9183 194.85 90.6006 195.313 91.1854C195.54 91.4685 195.79 91.733 196.137 91.8769C196.188 91.9001 196.239 91.914 196.243 91.979C196.183 91.979 196.118 91.979 196.058 91.979C195.748 91.9233 195.433 91.928 195.123 91.8584C193.378 91.4499 192.013 90.466 190.916 89.0828C189.606 87.4398 188.907 85.5322 188.657 83.4576C188.625 83.193 188.648 82.9192 188.602 82.6546C188.602 82.5293 188.602 82.4086 188.602 82.2833C188.639 82.0512 188.639 81.8192 188.602 81.5871C188.602 81.5082 188.602 81.4339 188.602 81.355C188.703 81.1044 188.676 80.8306 188.713 80.5706C189.041 78.1247 190.055 75.9664 191.467 73.9707C192.739 72.1698 194.262 70.6011 195.975 69.2087C196.132 69.0834 196.299 68.9766 196.516 69.0045Z" fill="#9A7863"/>
<path d="M188.602 81.5879C188.676 81.82 188.676 82.052 188.602 82.2841C188.602 82.052 188.602 81.82 188.602 81.5879Z" fill="#DEC3A0"/>
<path d="M196.328 91.9841C196.453 91.9145 196.573 91.9191 196.698 91.9841C196.573 91.9841 196.453 91.9841 196.328 91.9841Z" fill="#CAA87D"/>
<path d="M201.615 89.761C201.449 89.6543 201.634 89.5893 201.666 89.5475C201.819 89.3433 202.004 89.1716 202.162 88.9674C203.171 87.6585 203.805 86.1779 204.157 84.5674C204.272 84.0429 204.337 83.5092 204.388 82.9754C204.527 82.7201 204.749 82.5345 204.943 82.3256C206.448 80.6872 207.739 78.891 208.827 76.951C209.692 75.4054 210.414 73.7902 210.974 72.1054C211.011 71.9894 211.034 71.8641 211.118 71.7666C211.127 71.762 211.136 71.7527 211.146 71.748C211.308 71.878 211.363 72.0544 211.386 72.254C211.567 73.9109 211.581 75.5679 211.433 77.2295C211.28 78.8957 210.96 80.5294 210.363 82.0982C209.012 85.6349 206.624 88.1273 203.027 89.399C202.564 89.5568 202.097 89.6961 201.615 89.761Z" fill="#8C695C"/>
<path d="M202.857 76.0181C202.579 75.5586 202.329 75.0805 202.033 74.6303C201.626 74.013 201.195 73.4189 200.737 72.8434C200.686 72.7784 200.64 72.7042 200.594 72.6392C201.964 72.0869 203.389 71.7527 204.852 71.5624C206.463 71.3489 208.073 71.3211 209.693 71.4278C210.022 71.451 210.355 71.4835 210.684 71.5206C210.86 71.5392 211.026 71.6042 211.147 71.7527L211.137 71.7666C211.082 71.8548 210.989 71.8734 210.901 71.9012C209.601 72.3189 208.346 72.8434 207.125 73.4607C205.731 74.1616 204.408 74.9784 203.149 75.9021C203.056 75.9578 202.987 76.0552 202.857 76.0181Z" fill="#8C695C"/>
<path d="M202.859 76.0178C203.345 75.679 203.827 75.3309 204.322 75.0106C205.724 74.0963 207.187 73.298 208.733 72.6482C209.52 72.3187 210.316 72.0124 211.13 71.7617C210.899 72.5879 210.58 73.3815 210.256 74.1706C209.941 74.9364 209.575 75.6744 209.187 76.403C208.483 77.7258 207.692 78.9883 206.789 80.1811C206.095 81.1047 205.35 81.9819 204.558 82.822C204.507 82.8777 204.442 82.9241 204.387 82.9752C204.368 82.6503 204.438 82.33 204.433 82.0051C204.415 80.3389 204.067 78.7423 203.406 77.2106C203.234 76.8115 203.045 76.417 202.859 76.0178Z" fill="#785353"/>
<rect x="57" y="29" width="23" height="7" fill="#F4A34E"/>
<rect x="56" y="35" width="25" height="1" fill="#F6BD57"/>
<rect x="56" y="33" width="25" height="1" fill="#F6BD57"/>
<rect x="56" y="31" width="25" height="1" fill="#F6BD57"/>
<rect x="56" y="29" width="25" height="1" fill="#F6BD57"/>
<path d="M73.8562 14.0262C74.793 14.3694 75.7298 14.7126 76.6501 15.0498C76.8579 15.5003 76.6514 15.9113 76.5063 16.3073C75.9424 17.8976 75.3395 19.4923 74.7591 21.0765C74.6381 21.4065 74.5172 21.7366 74.4456 22.0847C74.3421 22.5708 74.4858 22.9417 74.9382 23.1823C75.4071 23.429 75.8352 23.3799 76.2181 22.9961C76.5155 22.6933 76.6381 22.3077 76.7832 21.9116C77.3921 20.3004 77.9682 18.6772 78.5607 17.0599C78.7118 16.6474 78.8137 16.2168 79.2633 16.0071C80.4016 16.4616 81.6696 16.6641 82.6826 17.4096C82.2071 17.7408 81.96 18.2118 81.7666 18.7398C80.7992 21.3802 79.8379 24.0041 78.8706 26.6445C78.7134 27.0735 78.5995 27.5372 78.2182 27.8654C78.1162 27.9403 78.0055 27.9372 77.9129 27.8846C72.4462 25.8631 66.9734 23.858 61.5067 21.8365C60.685 21.5354 59.8632 21.2344 59.0415 20.9333C60.0512 18.1774 61.0115 15.4035 62.0601 12.6431C62.6552 11.1204 64.2255 10.4978 65.8032 11.0758C65.8701 11.6057 65.5797 12.0421 65.4164 12.4877C64.8887 13.9789 64.3282 15.4581 63.7901 16.9268C63.639 17.3394 63.5042 17.758 63.5071 18.2082C63.5065 18.7695 63.7834 19.133 64.3214 19.2927C64.8594 19.4523 65.2268 19.2126 65.5215 18.8152C65.7186 18.5318 65.8291 18.1792 65.944 17.8657C66.5244 16.2814 67.1108 14.6807 67.6912 13.0965C67.8424 12.6839 67.9442 12.2533 68.3999 12.0272C69.3367 12.3704 70.2735 12.7136 71.1938 13.0508C71.4016 13.5012 71.1951 13.9122 71.05 14.3083C70.486 15.8985 69.8831 17.4932 69.3027 19.0775C69.1818 19.4075 69.0609 19.7376 68.9893 20.0857C68.8857 20.5718 69.0295 20.9427 69.4819 21.1833C69.9508 21.43 70.3788 21.3809 70.7618 20.9971C71.0591 20.6943 71.1817 20.3087 71.3268 19.9126C71.9358 18.3014 72.5118 16.6782 73.1043 15.0609C73.2987 14.6829 73.4066 14.2358 73.8562 14.0262Z" fill="#5F5260"/>
<path d="M80.7122 28.8523C79.8472 28.5167 78.9761 28.1976 78.1276 27.868C79.3368 24.5675 80.5459 21.267 81.7387 17.9605C81.9261 17.449 82.1145 17.0875 82.7252 17.4048C83.7755 18.2014 84.211 19.353 83.7757 20.5411C82.7704 23.3361 81.7279 26.0799 80.7122 28.8523Z" fill="#4D3E4F"/>
<path d="M68.4318 12.0399C67.6519 14.1687 66.8659 16.314 66.086 18.4428C65.6809 19.5485 65.0766 19.926 64.2324 19.6354C63.2178 19.3012 62.9105 18.6645 63.2904 17.4748C63.6945 16.219 64.1419 14.9978 64.6447 13.7782C65.0161 12.8661 65.1307 11.8412 65.8023 11.0765C66.6897 11.4017 67.5608 11.7208 68.4318 12.0399Z" fill="#4D3E4F"/>
<path d="M73.8556 14.0266C73.0515 16.2214 72.2638 18.4222 71.4433 20.611C71.0866 21.5847 70.4226 21.9216 69.5515 21.6025C68.6476 21.2714 68.4026 20.7698 68.7533 19.8127C69.5591 17.5623 70.4038 15.3075 71.2261 13.0632C72.1135 13.3884 72.9846 13.7075 73.8556 14.0266Z" fill="#4D3E4F"/>
<path d="M79.2775 16.0129C78.4734 18.2077 77.6857 20.4086 76.8652 22.5974C76.5085 23.571 75.8444 23.908 74.9734 23.5888C74.0695 23.2577 73.8245 22.7561 74.1752 21.799C74.981 19.5487 75.8257 17.2939 76.6479 15.0496C77.5354 15.3747 78.4064 15.6938 79.2775 16.0129Z" fill="#4D3E4F"/>
</svg>
