<svg width="248" height="138" viewBox="0 0 248 138" fill="none" xmlns="http://www.w3.org/2000/svg">
<g clip-path="url(#clip0_1363_1531)">
<path d="M126.002 96.3747C125.981 96.1586 126.159 95.9809 126.375 96.0016C127.769 96.1353 132.445 96.7904 135.361 99.7064C137.27 101.616 137.553 104.43 135.991 105.991C134.43 107.553 131.616 107.27 129.706 105.361C126.79 102.445 126.135 97.7687 126.002 96.3747Z" fill="#79C800"/>
<path d="M157.591 87.0018C157.827 86.9792 158.021 87.173 157.998 87.4087C157.852 88.9294 157.138 94.0305 153.957 97.2115C151.873 99.2948 148.804 99.6029 147.1 97.8996C145.397 96.1963 145.705 93.1267 147.788 91.0433C150.969 87.8622 156.071 87.1475 157.591 87.0018Z" fill="#79C800"/>
<path d="M143.552 125.587L143.552 107.19C143.552 105.117 144.36 103.168 145.825 101.704L152.501 95.0278C153.107 94.4217 153.107 93.4396 152.501 92.8335C151.895 92.2274 150.913 92.2274 150.307 92.8335L143.631 99.5088C141.579 101.56 140.449 104.287 140.449 107.19V108.907C140.421 108.879 140.398 108.848 140.37 108.82L134.196 102.644C133.59 102.038 132.608 102.038 132.001 102.644C131.395 103.251 131.395 104.233 132.001 104.839L138.176 111.015C139.641 112.479 140.449 114.428 140.449 116.501L140.449 125.587H143.552Z" fill="#5ABA63"/>
<path d="M174.937 136.449C168.692 129.068 156.289 124.035 142 124.035C127.71 124.035 115.307 129.068 109.062 136.449" fill="#9A7863"/>
<path d="M151.135 124.755C148.21 124.294 145.155 124.035 142 124.035C127.711 124.035 115.307 129.068 109.062 136.449H127.332C132.198 130.697 140.812 126.385 151.135 124.755Z" fill="#8C695C"/>
<path d="M180.794 138H103.208C102.35 138 101.656 137.305 101.656 136.448C101.656 135.591 102.35 134.896 103.208 134.896H180.794C181.652 134.896 182.346 135.591 182.346 136.448C182.346 137.305 181.652 138 180.794 138Z" fill="#785353"/>
</g>
<defs>
<clipPath id="clip0_1363_1531">
<rect width="248" height="138" fill="white"/>
</clipPath>
</defs>
</svg>
