<svg width="248" height="138" viewBox="0 0 248 138" fill="none" xmlns="http://www.w3.org/2000/svg">
<path d="M183.012 61.0044C183.582 60.9496 184.05 61.418 183.996 61.9879C183.643 65.6627 181.916 77.9903 174.229 85.6778C169.194 90.7124 161.776 91.4569 157.659 87.3405C153.543 83.2243 154.288 75.8059 159.322 70.7712C167.01 63.0838 179.337 61.3566 183.012 61.0044Z" fill="#91CF96"/>
<path d="M96.0044 69.9878C95.9496 69.4182 96.418 68.9498 96.9879 69.0043C100.663 69.357 112.99 71.084 120.678 78.7713C125.712 83.806 126.457 91.2244 122.34 95.3406C118.224 99.4569 110.806 98.7124 105.771 93.6779C98.0838 85.9902 96.3566 73.6627 96.0044 69.9878Z" fill="#91CF96"/>
<path d="M98.0043 36.0218C97.9497 35.4325 98.418 34.9479 98.9878 35.0045C102.663 35.3691 114.99 37.1557 122.678 45.1083C127.712 50.3165 128.457 57.9906 124.341 62.2489C120.224 66.5072 112.806 65.7369 107.771 60.5288C100.084 52.5764 98.3568 39.8237 98.0043 36.0218Z" fill="#91CF96"/>
<path d="M173.619 26.6782C174.207 26.6077 174.702 27.0807 174.66 27.6713C174.385 31.4804 172.9 44.2717 165.137 52.4098C160.053 57.7393 152.399 58.6904 148.042 54.5338C143.684 50.3772 144.273 42.6872 149.357 37.3574C157.119 29.2192 169.826 27.1322 173.619 26.6782Z" fill="#91CF96"/>
<path d="M172.497 73.9999C171.814 73.3228 170.706 73.3228 170.022 73.9999L141.747 100.016V70.3743C141.747 68.0585 142.658 65.8819 144.311 64.2459L159.472 44.4511C160.155 43.7741 160.155 42.677 159.472 42C158.788 41.323 157.681 41.323 156.997 42L141.836 61.7942C139.522 64.0851 138.247 67.1321 138.247 70.3745V72.2921C138.216 72.2607 138.19 72.2263 138.158 72.1951L116.972 51.5487C116.288 50.8716 115.18 50.8716 114.497 51.5487C113.813 52.2257 113.813 53.3227 114.497 53.9998L135.684 74.647C137.336 76.2823 138.247 78.459 138.247 80.7747V108.683L112.972 84.0488C112.288 83.3717 111.181 83.3717 110.497 84.0488C109.813 84.7258 109.813 85.8228 110.497 86.4999L138.247 113.584V125H141.747V104.918L172.497 76.451C173.181 75.7737 173.181 74.6771 172.497 73.9999Z" fill="#5ABA63"/>
<path d="M172.937 136.449C166.692 129.068 154.289 124.035 140 124.035C125.71 124.035 113.307 129.068 107.062 136.449" fill="#9A7863"/>
<path d="M149.135 124.755C146.21 124.294 143.155 124.035 140 124.035C125.711 124.035 113.307 129.068 107.062 136.449H125.332C130.198 130.697 138.812 126.385 149.135 124.755Z" fill="#8C695C"/>
<path d="M178.794 138H101.208C100.35 138 99.6562 137.305 99.6562 136.448C99.6562 135.591 100.35 134.896 101.208 134.896H178.794C179.652 134.896 180.346 135.591 180.346 136.448C180.346 137.305 179.652 138 178.794 138Z" fill="#785353"/>
</svg>
